<?xml version="1.0" encoding="UTF-8"?><svg xmlns="http://www.w3.org/2000/svg" xmlns:xlink="http://www.w3.org/1999/xlink" width="36pt" zoomAndPan="magnify" viewBox="0 0 36 36.000001" height="36.000001pt" preserveAspectRatio="xMidYMid meet" version="1.2"><defs><clipPath xml:id="clip1" id="clip1"><path d="M 24 13 L 35.511719 13 L 35.511719 25 L 24 25 Z M 24 13 "/></clipPath><clipPath xml:id="clip2" id="clip2"><path d="M 3 17 L 31 17 L 31 29.109375 L 3 29.109375 Z M 3 17 "/></clipPath><clipPath xml:id="clip3" id="clip3"><path d="M 0.488281 5.757812 L 8 5.757812 L 8 17 L 0.488281 17 Z M 0.488281 5.757812 "/></clipPath></defs><g xml:id="surface1" id="surface1"><path style=" stroke:none;fill-rule:nonzero;fill:rgb(0%,66.668701%,65.879822%);fill-opacity:1;" d="M 13.277344 14.164062 C 13.113281 13.921875 12.785156 13.839844 12.511719 14.003906 L 8.6875 16.441406 C 8.523438 16.550781 8.441406 16.714844 8.441406 16.90625 C 8.441406 17.09375 8.523438 17.257812 8.6875 17.367188 L 12.511719 19.804688 C 12.59375 19.859375 12.703125 19.886719 12.8125 19.886719 C 13.003906 19.886719 13.167969 19.804688 13.277344 19.644531 C 13.441406 19.398438 13.359375 19.046875 13.113281 18.882812 L 10 16.90625 L 13.113281 14.925781 C 13.359375 14.761719 13.441406 14.410156 13.277344 14.164062 Z M 13.277344 14.164062 "/><path style=" stroke:none;fill-rule:nonzero;fill:rgb(0%,66.668701%,65.879822%);fill-opacity:1;" d="M 22.941406 16.441406 L 19.121094 14.003906 C 18.875 13.839844 18.519531 13.921875 18.355469 14.164062 C 18.191406 14.410156 18.273438 14.761719 18.519531 14.925781 L 21.632812 16.90625 L 18.519531 18.882812 C 18.273438 19.046875 18.191406 19.371094 18.355469 19.644531 C 18.464844 19.804688 18.628906 19.886719 18.820312 19.886719 C 18.929688 19.886719 19.011719 19.859375 19.121094 19.804688 L 22.941406 17.367188 C 23.105469 17.257812 23.1875 17.09375 23.1875 16.90625 C 23.1875 16.714844 23.105469 16.550781 22.941406 16.441406 Z M 22.941406 16.441406 "/><path style=" stroke:none;fill-rule:nonzero;fill:rgb(0%,66.668701%,65.879822%);fill-opacity:1;" d="M 14.722656 20.429688 C 14.941406 20.429688 15.160156 20.292969 15.242188 20.078125 L 17.425781 14.109375 C 17.535156 13.839844 17.371094 13.515625 17.097656 13.40625 C 16.824219 13.296875 16.5 13.460938 16.390625 13.730469 L 14.203125 19.699219 C 14.09375 19.96875 14.257812 20.292969 14.53125 20.402344 C 14.585938 20.429688 14.667969 20.429688 14.722656 20.429688 Z M 14.722656 20.429688 "/><g clip-rule="nonzero" clip-path="url(#clip1)"><path style=" stroke:none;fill-rule:nonzero;fill:rgb(0%,66.668701%,65.879822%);fill-opacity:1;" d="M 34.4375 16.878906 C 34.410156 16.769531 34.355469 16.6875 34.328125 16.578125 C 34.464844 16.363281 34.519531 16.117188 34.519531 15.875 C 34.519531 15.519531 34.382812 15.195312 34.136719 14.925781 L 33.621094 14.410156 C 33.375 14.164062 33.019531 14.03125 32.664062 14.03125 C 32.417969 14.03125 32.171875 14.109375 31.953125 14.21875 C 31.84375 14.164062 31.761719 14.136719 31.652344 14.109375 C 31.515625 13.515625 30.996094 13.082031 30.34375 13.082031 L 29.605469 13.082031 C 28.976562 13.082031 28.429688 13.515625 28.292969 14.109375 C 28.183594 14.136719 28.101562 14.191406 27.996094 14.21875 C 27.777344 14.082031 27.53125 14.03125 27.285156 14.03125 C 26.929688 14.03125 26.601562 14.164062 26.328125 14.410156 L 25.808594 14.925781 C 25.5625 15.167969 25.425781 15.519531 25.425781 15.875 C 25.425781 16.117188 25.507812 16.363281 25.617188 16.578125 C 25.5625 16.6875 25.535156 16.769531 25.507812 16.878906 C 24.910156 17.011719 24.472656 17.527344 24.472656 18.179688 L 24.472656 18.910156 C 24.472656 19.535156 24.910156 20.078125 25.507812 20.214844 C 25.535156 20.320312 25.589844 20.402344 25.617188 20.511719 C 25.480469 20.726562 25.425781 20.972656 25.425781 21.214844 C 25.425781 21.570312 25.5625 21.894531 25.808594 22.164062 L 26.328125 22.679688 C 26.574219 22.925781 26.929688 23.0625 27.285156 23.0625 C 27.53125 23.0625 27.777344 22.980469 27.996094 22.871094 C 28.101562 22.925781 28.183594 22.953125 28.292969 22.980469 C 28.429688 23.578125 28.949219 24.011719 29.605469 24.011719 L 30.34375 24.011719 C 30.96875 24.011719 31.515625 23.578125 31.652344 22.980469 C 31.761719 22.953125 31.84375 22.898438 31.953125 22.871094 C 32.171875 23.007812 32.417969 23.0625 32.664062 23.0625 C 33.019531 23.0625 33.347656 22.925781 33.621094 22.679688 L 34.136719 22.164062 C 34.382812 21.921875 34.519531 21.570312 34.519531 21.214844 C 34.519531 20.972656 34.4375 20.726562 34.328125 20.511719 C 34.382812 20.402344 34.410156 20.320312 34.4375 20.214844 C 35.039062 20.078125 35.476562 19.5625 35.476562 18.910156 L 35.476562 18.179688 C 35.476562 17.554688 35.039062 17.011719 34.4375 16.878906 Z M 34.382812 18.882812 C 34.382812 19.019531 34.273438 19.128906 34.136719 19.128906 L 33.59375 19.128906 C 33.511719 19.671875 33.292969 20.1875 32.964844 20.621094 L 33.347656 21 C 33.429688 21.082031 33.429688 21.242188 33.347656 21.351562 L 32.828125 21.867188 C 32.773438 21.921875 32.71875 21.949219 32.664062 21.949219 C 32.609375 21.949219 32.527344 21.921875 32.5 21.867188 L 32.117188 21.488281 C 31.679688 21.785156 31.160156 22.003906 30.617188 22.113281 L 30.617188 22.652344 C 30.617188 22.789062 30.507812 22.898438 30.371094 22.898438 L 29.632812 22.898438 C 29.496094 22.898438 29.386719 22.789062 29.386719 22.652344 L 29.386719 22.113281 C 28.839844 22.03125 28.320312 21.8125 27.886719 21.488281 L 27.503906 21.867188 C 27.449219 21.921875 27.394531 21.949219 27.339844 21.949219 C 27.285156 21.949219 27.203125 21.921875 27.175781 21.867188 L 26.65625 21.351562 C 26.574219 21.269531 26.574219 21.109375 26.65625 21 L 27.039062 20.621094 C 26.738281 20.1875 26.519531 19.671875 26.410156 19.128906 L 25.863281 19.128906 C 25.726562 19.128906 25.617188 19.019531 25.617188 18.882812 L 25.617188 18.152344 C 25.617188 18.015625 25.726562 17.90625 25.863281 17.90625 L 26.410156 17.90625 C 26.492188 17.367188 26.710938 16.851562 27.039062 16.417969 L 26.65625 16.035156 C 26.574219 15.957031 26.574219 15.792969 26.65625 15.683594 L 27.175781 15.167969 C 27.230469 15.113281 27.285156 15.085938 27.339844 15.085938 C 27.394531 15.085938 27.476562 15.113281 27.503906 15.167969 L 27.886719 15.546875 C 28.320312 15.25 28.839844 15.03125 29.386719 14.925781 L 29.386719 14.382812 C 29.386719 14.246094 29.496094 14.136719 29.632812 14.136719 L 30.371094 14.136719 C 30.507812 14.136719 30.617188 14.246094 30.617188 14.382812 L 30.617188 14.925781 C 31.160156 15.007812 31.679688 15.222656 32.117188 15.546875 L 32.5 15.167969 C 32.554688 15.113281 32.609375 15.085938 32.664062 15.085938 C 32.71875 15.085938 32.800781 15.113281 32.828125 15.167969 L 33.347656 15.683594 C 33.429688 15.765625 33.429688 15.929688 33.347656 16.035156 L 32.964844 16.417969 C 33.265625 16.851562 33.484375 17.367188 33.59375 17.90625 L 34.136719 17.90625 C 34.273438 17.90625 34.382812 18.015625 34.382812 18.152344 Z M 34.382812 18.882812 "/></g><path style=" stroke:none;fill-rule:nonzero;fill:rgb(0%,66.668701%,65.879822%);fill-opacity:1;" d="M 30.015625 16.632812 C 28.949219 16.632812 28.101562 17.472656 28.101562 18.53125 C 28.101562 19.589844 28.949219 20.429688 30.015625 20.429688 C 31.078125 20.429688 31.925781 19.589844 31.925781 18.53125 C 31.925781 17.472656 31.078125 16.632812 30.015625 16.632812 Z M 30.015625 19.34375 C 29.550781 19.34375 29.195312 18.992188 29.195312 18.53125 C 29.195312 18.070312 29.550781 17.71875 30.015625 17.71875 C 30.480469 17.71875 30.835938 18.070312 30.835938 18.53125 C 30.835938 18.992188 30.480469 19.34375 30.015625 19.34375 Z M 30.015625 19.34375 "/><g clip-rule="nonzero" clip-path="url(#clip2)"><path style=" stroke:none;fill-rule:nonzero;fill:rgb(0%,66.668701%,65.879822%);fill-opacity:1;" d="M 29.195312 26.125 C 29.933594 26.125 30.535156 25.664062 30.753906 25.011719 C 30.644531 25.039062 30.507812 25.039062 30.371094 25.039062 L 29.632812 25.039062 C 29.523438 25.039062 29.414062 25.039062 29.332031 25.011719 C 29.277344 25.011719 29.25 25.039062 29.195312 25.039062 L 5.164062 25.039062 C 4.867188 25.039062 4.621094 24.796875 4.621094 24.5 L 4.621094 17.664062 C 4.457031 17.691406 4.265625 17.71875 4.074219 17.71875 C 3.882812 17.71875 3.691406 17.691406 3.527344 17.664062 L 3.527344 24.5 C 3.527344 25.394531 4.265625 26.125 5.164062 26.125 L 14.996094 26.125 L 14.996094 28.023438 L 13.359375 28.023438 C 13.058594 28.023438 12.8125 28.269531 12.8125 28.566406 C 12.8125 28.863281 13.058594 29.109375 13.359375 29.109375 L 21.003906 29.109375 C 21.304688 29.109375 21.550781 28.863281 21.550781 28.566406 C 21.550781 28.269531 21.304688 28.023438 21.003906 28.023438 L 19.367188 28.023438 L 19.367188 26.125 Z M 18.273438 28.023438 L 16.089844 28.023438 L 16.089844 26.125 L 18.273438 26.125 Z M 18.273438 28.023438 "/></g><path style=" stroke:none;fill-rule:nonzero;fill:rgb(0%,66.668701%,65.879822%);fill-opacity:1;" d="M 30.371094 12.023438 C 30.535156 12.023438 30.671875 12.050781 30.835938 12.078125 L 30.835938 9.308594 C 30.835938 8.414062 30.097656 7.683594 29.195312 7.683594 L 8.46875 7.683594 C 8.578125 8.035156 8.660156 8.386719 8.6875 8.769531 L 29.195312 8.769531 C 29.496094 8.769531 29.742188 9.011719 29.742188 9.308594 L 29.742188 12.023438 Z M 30.371094 12.023438 "/><g clip-rule="nonzero" clip-path="url(#clip3)"><path style=" stroke:none;fill-rule:nonzero;fill:rgb(0%,66.668701%,65.879822%);fill-opacity:1;" d="M 2.191406 12.292969 L 2.191406 14.707031 C 2.191406 15.765625 3.035156 16.632812 4.074219 16.632812 C 5.109375 16.632812 5.957031 15.765625 5.957031 14.707031 L 5.957031 12.292969 C 6.996094 11.644531 7.625 10.476562 7.625 9.203125 C 7.625 7.710938 6.75 6.382812 5.382812 5.8125 C 5.21875 5.757812 5.03125 5.757812 4.867188 5.867188 C 4.703125 5.972656 4.621094 6.136719 4.621094 6.328125 L 4.621094 9.039062 L 3.527344 9.039062 L 3.527344 6.328125 C 3.527344 6.136719 3.445312 5.972656 3.28125 5.867188 C 3.117188 5.757812 2.925781 5.757812 2.761719 5.8125 C 1.398438 6.355469 0.523438 7.683594 0.523438 9.203125 C 0.523438 10.476562 1.152344 11.644531 2.191406 12.292969 Z M 2.433594 7.304688 L 2.433594 9.011719 C 2.433594 9.609375 2.925781 10.097656 3.527344 10.097656 L 4.621094 10.097656 C 5.21875 10.097656 5.710938 9.609375 5.710938 9.011719 L 5.710938 7.304688 C 6.230469 7.765625 6.53125 8.46875 6.53125 9.203125 C 6.53125 10.179688 6.011719 11.046875 5.164062 11.480469 C 4.976562 11.5625 4.867188 11.75 4.867188 11.96875 L 4.867188 14.707031 C 4.867188 15.167969 4.511719 15.546875 4.074219 15.546875 C 3.636719 15.546875 3.28125 15.167969 3.28125 14.707031 L 3.28125 11.96875 C 3.28125 11.777344 3.171875 11.589844 2.980469 11.480469 C 2.136719 11.046875 1.617188 10.179688 1.617188 9.203125 C 1.617188 8.46875 1.917969 7.792969 2.433594 7.304688 Z M 2.433594 7.304688 "/></g></g></svg>