<?xml version="1.0" encoding="UTF-8"?><svg xmlns="http://www.w3.org/2000/svg" xmlns:xlink="http://www.w3.org/1999/xlink" width="487.5pt" zoomAndPan="magnify" viewBox="0 0 487.5 198.749996" height="198.749996pt" preserveAspectRatio="xMidYMid meet" version="1.2"><defs><clipPath xml:id="clip1" id="clip1"><path d="M 12.492188 141.863281 L 82.226562 141.863281 L 82.226562 198.5 L 12.492188 198.5 Z M 12.492188 141.863281 "/></clipPath><clipPath xml:id="clip2" id="clip2"><path d="M 152.308594 58.34375 L 335.269531 58.34375 L 335.269531 173 L 152.308594 173 Z M 152.308594 58.34375 "/></clipPath><clipPath xml:id="clip3" id="clip3"><path d="M 202 188 L 286 188 L 286 198.5 L 202 198.5 Z M 202 188 "/></clipPath><clipPath xml:id="clip4" id="clip4"><path d="M 347.207031 119.222656 L 413.941406 119.222656 L 413.941406 198.5 L 347.207031 198.5 Z M 347.207031 119.222656 "/></clipPath><clipPath xml:id="clip5" id="clip5"><path d="M 430 156.011719 L 467 156.011719 L 467 163 L 430 163 Z M 430 156.011719 "/></clipPath><clipPath xml:id="clip6" id="clip6"><path d="M 448 196 L 454 196 L 454 198.5 L 448 198.5 Z M 448 196 "/></clipPath><clipPath xml:id="clip7" id="clip7"><path d="M 426.289062 191 L 472 191 L 472 198.5 L 426.289062 198.5 Z M 426.289062 191 "/></clipPath><clipPath xml:id="clip8" id="clip8"><path d="M 463 165 L 475.027344 165 L 475.027344 180 L 463 180 Z M 463 165 "/></clipPath><clipPath xml:id="clip9" id="clip9"><path d="M 439 156.011719 L 442 156.011719 L 442 172 L 439 172 Z M 439 156.011719 "/></clipPath><clipPath xml:id="clip10" id="clip10"><path d="M 362 47 L 388 47 L 388 73 L 362 73 Z M 362 47 "/></clipPath><clipPath xml:id="clip11" id="clip11"><path d="M 367.449219 43.507812 L 408.476562 57.929688 L 393.804688 99.667969 L 352.777344 85.242188 Z M 367.449219 43.507812 "/></clipPath><clipPath xml:id="clip12" id="clip12"><path d="M 367.449219 43.507812 L 408.476562 57.929688 L 393.804688 99.667969 L 352.777344 85.242188 Z M 367.449219 43.507812 "/></clipPath><clipPath xml:id="clip13" id="clip13"><path d="M 364 72 L 384 72 L 384 92 L 364 92 Z M 364 72 "/></clipPath><clipPath xml:id="clip14" id="clip14"><path d="M 367.449219 43.507812 L 408.476562 57.929688 L 393.804688 99.667969 L 352.777344 85.242188 Z M 367.449219 43.507812 "/></clipPath><clipPath xml:id="clip15" id="clip15"><path d="M 367.449219 43.507812 L 408.476562 57.929688 L 393.804688 99.667969 L 352.777344 85.242188 Z M 367.449219 43.507812 "/></clipPath><clipPath xml:id="clip16" id="clip16"><path d="M 367.960938 69.953125 L 386.386719 76.433594 L 379.898438 94.894531 L 361.46875 88.414062 Z M 367.960938 69.953125 "/></clipPath><clipPath xml:id="clip17" id="clip17"><path d="M 367.960938 69.953125 L 386.386719 76.433594 L 379.953125 94.730469 L 361.527344 88.253906 Z M 367.960938 69.953125 "/></clipPath><clipPath xml:id="clip18" id="clip18"><path d="M 382 63 L 403 63 L 403 85 L 382 85 Z M 382 63 "/></clipPath><clipPath xml:id="clip19" id="clip19"><path d="M 367.449219 43.507812 L 408.476562 57.929688 L 393.804688 99.667969 L 352.777344 85.242188 Z M 367.449219 43.507812 "/></clipPath><clipPath xml:id="clip20" id="clip20"><path d="M 367.449219 43.507812 L 408.476562 57.929688 L 393.804688 99.667969 L 352.777344 85.242188 Z M 367.449219 43.507812 "/></clipPath><clipPath xml:id="clip21" id="clip21"><path d="M 385.996094 61.011719 L 405.074219 67.714844 L 398.355469 86.824219 L 379.28125 80.121094 Z M 385.996094 61.011719 "/></clipPath><clipPath xml:id="clip22" id="clip22"><path d="M 385.996094 61.011719 L 405.023438 67.699219 L 398.308594 86.808594 L 379.28125 80.121094 Z M 385.996094 61.011719 "/></clipPath><clipPath xml:id="clip23" id="clip23"><path d="M 88 128.523438 L 139.609375 128.523438 L 139.609375 198.5 L 88 198.5 Z M 88 128.523438 "/></clipPath><clipPath xml:id="clip24" id="clip24"><path d="M 106 75 L 121 75 L 121 90 L 106 90 Z M 106 75 "/></clipPath><clipPath xml:id="clip25" id="clip25"><path d="M 76.273438 91.949219 L 72.976562 47.078125 L 117.84375 43.78125 L 121.144531 88.648438 Z M 76.273438 91.949219 "/></clipPath><clipPath xml:id="clip26" id="clip26"><path d="M 76.273438 91.949219 L 72.976562 47.078125 L 117.84375 43.78125 L 121.144531 88.648438 Z M 76.273438 91.949219 "/></clipPath><clipPath xml:id="clip27" id="clip27"><path d="M 89 57 L 120 57 L 120 91 L 89 91 Z M 89 57 "/></clipPath><clipPath xml:id="clip28" id="clip28"><path d="M 76.273438 91.949219 L 72.976562 47.078125 L 117.84375 43.78125 L 121.144531 88.648438 Z M 76.273438 91.949219 "/></clipPath><clipPath xml:id="clip29" id="clip29"><path d="M 76.273438 91.949219 L 72.976562 47.078125 L 117.84375 43.78125 L 121.144531 88.648438 Z M 76.273438 91.949219 "/></clipPath><clipPath xml:id="clip30" id="clip30"><path d="M 76 43 L 119 43 L 119 92 L 76 92 Z M 76 43 "/></clipPath><clipPath xml:id="clip31" id="clip31"><path d="M 76.273438 91.949219 L 72.976562 47.078125 L 117.84375 43.78125 L 121.144531 88.648438 Z M 76.273438 91.949219 "/></clipPath><clipPath xml:id="clip32" id="clip32"><path d="M 76.273438 91.949219 L 72.976562 47.078125 L 117.84375 43.78125 L 121.144531 88.648438 Z M 76.273438 91.949219 "/></clipPath></defs><g xml:id="surface1" id="surface1"><g clip-rule="nonzero" clip-path="url(#clip1)"><path style=" stroke:none;fill-rule:nonzero;fill:rgb(0%,66.668701%,65.879822%);fill-opacity:1;" d="M 73.507812 198.847656 L 21.207031 198.847656 C 20.636719 198.847656 20.070312 198.792969 19.507812 198.679688 C 18.945312 198.570312 18.402344 198.402344 17.871094 198.183594 C 17.34375 197.960938 16.839844 197.691406 16.367188 197.371094 C 15.890625 197.050781 15.449219 196.6875 15.042969 196.28125 C 14.640625 195.875 14.277344 195.433594 13.960938 194.953125 C 13.644531 194.472656 13.375 193.96875 13.15625 193.4375 C 12.9375 192.90625 12.769531 192.359375 12.660156 191.792969 C 12.546875 191.226562 12.492188 190.660156 12.492188 190.082031 L 12.492188 159.398438 C 12.492188 158.824219 12.546875 158.253906 12.660156 157.691406 C 12.769531 157.125 12.9375 156.578125 13.15625 156.046875 C 13.375 155.511719 13.644531 155.007812 13.960938 154.53125 C 14.277344 154.050781 14.640625 153.609375 15.042969 153.199219 C 15.449219 152.792969 15.890625 152.429688 16.367188 152.109375 C 16.839844 151.792969 17.34375 151.519531 17.871094 151.300781 C 18.402344 151.082031 18.945312 150.914062 19.507812 150.800781 C 20.070312 150.691406 20.636719 150.632812 21.207031 150.632812 L 31.449219 150.632812 L 32.105469 146.066406 C 32.109375 145.785156 32.144531 145.507812 32.203125 145.230469 C 32.261719 144.957031 32.351562 144.691406 32.460938 144.429688 C 32.574219 144.171875 32.710938 143.929688 32.871094 143.699219 C 33.03125 143.464844 33.214844 143.253906 33.417969 143.058594 C 33.617188 142.863281 33.839844 142.6875 34.074219 142.539062 C 34.3125 142.386719 34.558594 142.257812 34.820312 142.15625 C 35.082031 142.054688 35.351562 141.980469 35.628906 141.929688 C 35.902344 141.882812 36.183594 141.859375 36.460938 141.867188 L 58.253906 141.867188 C 58.535156 141.859375 58.8125 141.882812 59.089844 141.929688 C 59.367188 141.980469 59.636719 142.054688 59.898438 142.160156 C 60.15625 142.261719 60.40625 142.386719 60.644531 142.539062 C 60.878906 142.691406 61.097656 142.867188 61.300781 143.0625 C 61.503906 143.257812 61.6875 143.46875 61.847656 143.703125 C 62.007812 143.933594 62.144531 144.179688 62.257812 144.4375 C 62.367188 144.695312 62.453125 144.960938 62.515625 145.238281 C 62.574219 145.515625 62.609375 145.792969 62.613281 146.074219 L 63.265625 150.632812 L 73.507812 150.632812 C 74.082031 150.632812 74.648438 150.691406 75.210938 150.800781 C 75.769531 150.914062 76.316406 151.082031 76.84375 151.300781 C 77.375 151.519531 77.875 151.792969 78.351562 152.109375 C 78.828125 152.429688 79.269531 152.792969 79.671875 153.199219 C 80.078125 153.609375 80.4375 154.050781 80.757812 154.53125 C 81.074219 155.007812 81.34375 155.511719 81.5625 156.046875 C 81.78125 156.578125 81.945312 157.125 82.058594 157.691406 C 82.167969 158.253906 82.226562 158.824219 82.226562 159.398438 L 82.226562 190.082031 C 82.226562 190.660156 82.167969 191.226562 82.058594 191.792969 C 81.945312 192.359375 81.78125 192.90625 81.5625 193.4375 C 81.34375 193.96875 81.074219 194.472656 80.757812 194.953125 C 80.4375 195.433594 80.078125 195.875 79.671875 196.28125 C 79.269531 196.6875 78.828125 197.050781 78.351562 197.371094 C 77.875 197.691406 77.375 197.960938 76.84375 198.183594 C 76.316406 198.402344 75.769531 198.570312 75.210938 198.679688 C 74.648438 198.792969 74.082031 198.847656 73.507812 198.847656 Z M 21.207031 155.015625 C 20.921875 155.015625 20.640625 155.042969 20.359375 155.101562 C 20.078125 155.15625 19.804688 155.238281 19.539062 155.351562 C 19.277344 155.460938 19.023438 155.59375 18.789062 155.753906 C 18.550781 155.914062 18.328125 156.097656 18.125 156.300781 C 17.925781 156.503906 17.742188 156.726562 17.585938 156.964844 C 17.425781 157.203125 17.292969 157.457031 17.183594 157.722656 C 17.074219 157.988281 16.988281 158.261719 16.933594 158.542969 C 16.878906 158.828125 16.851562 159.113281 16.851562 159.398438 L 16.851562 190.082031 C 16.851562 190.371094 16.878906 190.65625 16.933594 190.9375 C 16.988281 191.21875 17.074219 191.496094 17.183594 191.761719 C 17.292969 192.027344 17.425781 192.277344 17.585938 192.519531 C 17.742188 192.757812 17.925781 192.980469 18.125 193.183594 C 18.328125 193.386719 18.550781 193.566406 18.789062 193.726562 C 19.023438 193.886719 19.277344 194.023438 19.539062 194.132812 C 19.804688 194.242188 20.078125 194.324219 20.359375 194.382812 C 20.640625 194.4375 20.921875 194.464844 21.207031 194.464844 L 73.507812 194.464844 C 73.796875 194.464844 74.078125 194.4375 74.359375 194.382812 C 74.640625 194.324219 74.914062 194.242188 75.175781 194.132812 C 75.441406 194.023438 75.691406 193.886719 75.929688 193.726562 C 76.167969 193.566406 76.386719 193.386719 76.589844 193.183594 C 76.792969 192.980469 76.972656 192.757812 77.132812 192.519531 C 77.292969 192.277344 77.425781 192.027344 77.535156 191.761719 C 77.644531 191.496094 77.726562 191.21875 77.785156 190.9375 C 77.839844 190.65625 77.867188 190.371094 77.867188 190.082031 L 77.867188 159.398438 C 77.867188 159.113281 77.839844 158.828125 77.785156 158.542969 C 77.726562 158.261719 77.644531 157.988281 77.535156 157.722656 C 77.425781 157.457031 77.292969 157.203125 77.132812 156.964844 C 76.972656 156.726562 76.792969 156.503906 76.589844 156.300781 C 76.386719 156.097656 76.167969 155.914062 75.929688 155.753906 C 75.691406 155.59375 75.441406 155.460938 75.175781 155.351562 C 74.914062 155.238281 74.640625 155.15625 74.359375 155.101562 C 74.078125 155.042969 73.796875 155.015625 73.507812 155.015625 L 61.367188 155.015625 C 61.105469 155.015625 60.851562 154.96875 60.605469 154.878906 C 60.359375 154.785156 60.140625 154.652344 59.941406 154.480469 C 59.742188 154.308594 59.582031 154.105469 59.457031 153.875 C 59.328125 153.644531 59.25 153.398438 59.210938 153.136719 L 58.277344 146.5625 C 58.261719 146.457031 58.253906 146.355469 58.253906 146.25 L 36.460938 146.25 C 36.464844 146.355469 36.457031 146.457031 36.441406 146.5625 L 35.507812 153.136719 C 35.46875 153.398438 35.386719 153.644531 35.261719 153.875 C 35.136719 154.105469 34.972656 154.308594 34.777344 154.480469 C 34.578125 154.652344 34.355469 154.785156 34.109375 154.878906 C 33.863281 154.96875 33.609375 155.015625 33.347656 155.015625 Z M 21.207031 155.015625 "/></g><path style=" stroke:none;fill-rule:nonzero;fill:rgb(0%,66.668701%,65.879822%);fill-opacity:1;" d="M 51.71875 155.015625 L 34.285156 155.015625 C 33.996094 155.015625 33.714844 154.960938 33.449219 154.851562 C 33.183594 154.738281 32.945312 154.582031 32.742188 154.375 C 32.539062 154.167969 32.382812 153.933594 32.269531 153.664062 C 32.160156 153.394531 32.105469 153.117188 32.105469 152.824219 C 32.105469 152.535156 32.160156 152.253906 32.269531 151.988281 C 32.382812 151.71875 32.539062 151.480469 32.742188 151.273438 C 32.945312 151.070312 33.183594 150.910156 33.449219 150.800781 C 33.714844 150.6875 33.996094 150.632812 34.285156 150.632812 L 51.71875 150.632812 C 52.007812 150.632812 52.285156 150.6875 52.550781 150.800781 C 52.816406 150.910156 53.054688 151.070312 53.257812 151.273438 C 53.460938 151.480469 53.621094 151.71875 53.730469 151.988281 C 53.839844 152.253906 53.894531 152.535156 53.894531 152.824219 C 53.894531 153.117188 53.839844 153.394531 53.730469 153.664062 C 53.621094 153.933594 53.460938 154.167969 53.257812 154.375 C 53.054688 154.582031 52.816406 154.738281 52.550781 154.851562 C 52.285156 154.960938 52.007812 155.015625 51.71875 155.015625 Z M 51.71875 155.015625 "/><path style=" stroke:none;fill-rule:nonzero;fill:rgb(0%,66.668701%,65.879822%);fill-opacity:1;" d="M 56.074219 190.082031 L 25.566406 190.082031 C 25.28125 190.082031 24.996094 190.054688 24.714844 190 C 24.4375 189.941406 24.164062 189.859375 23.898438 189.75 C 23.632812 189.640625 23.382812 189.503906 23.144531 189.34375 C 22.90625 189.183594 22.6875 189.003906 22.484375 188.800781 C 22.28125 188.59375 22.101562 188.375 21.941406 188.132812 C 21.785156 187.894531 21.648438 187.644531 21.539062 187.375 C 21.429688 187.109375 21.347656 186.835938 21.292969 186.554688 C 21.238281 186.273438 21.207031 185.988281 21.207031 185.699219 L 21.207031 163.78125 C 21.207031 163.496094 21.238281 163.210938 21.292969 162.929688 C 21.347656 162.644531 21.429688 162.371094 21.539062 162.105469 C 21.648438 161.839844 21.785156 161.585938 21.941406 161.347656 C 22.101562 161.109375 22.28125 160.886719 22.484375 160.683594 C 22.6875 160.480469 22.90625 160.296875 23.144531 160.136719 C 23.382812 159.980469 23.632812 159.84375 23.898438 159.734375 C 24.164062 159.625 24.4375 159.539062 24.714844 159.484375 C 24.996094 159.429688 25.28125 159.398438 25.566406 159.398438 L 56.074219 159.398438 C 56.363281 159.398438 56.644531 159.429688 56.925781 159.484375 C 57.207031 159.539062 57.480469 159.625 57.742188 159.734375 C 58.007812 159.84375 58.257812 159.980469 58.496094 160.136719 C 58.734375 160.296875 58.953125 160.480469 59.15625 160.683594 C 59.359375 160.886719 59.539062 161.109375 59.699219 161.347656 C 59.859375 161.585938 59.992188 161.839844 60.101562 162.105469 C 60.210938 162.371094 60.292969 162.644531 60.351562 162.929688 C 60.40625 163.210938 60.433594 163.496094 60.433594 163.78125 L 60.433594 185.699219 C 60.433594 185.988281 60.40625 186.273438 60.351562 186.554688 C 60.292969 186.835938 60.210938 187.109375 60.101562 187.375 C 59.992188 187.644531 59.859375 187.894531 59.699219 188.132812 C 59.539062 188.375 59.359375 188.59375 59.15625 188.800781 C 58.953125 189.003906 58.734375 189.183594 58.496094 189.34375 C 58.257812 189.503906 58.007812 189.640625 57.742188 189.75 C 57.480469 189.859375 57.207031 189.941406 56.925781 190 C 56.644531 190.054688 56.363281 190.082031 56.074219 190.082031 Z M 25.566406 163.78125 L 25.566406 185.699219 L 56.074219 185.699219 L 56.074219 163.78125 Z M 25.566406 163.78125 "/><path style=" stroke:none;fill-rule:nonzero;fill:rgb(0%,66.668701%,65.879822%);fill-opacity:1;" d="M 71.328125 165.976562 L 66.972656 165.976562 C 66.683594 165.976562 66.40625 165.917969 66.136719 165.808594 C 65.871094 165.695312 65.636719 165.539062 65.429688 165.332031 C 65.226562 165.128906 65.070312 164.890625 64.957031 164.621094 C 64.847656 164.351562 64.792969 164.074219 64.792969 163.78125 C 64.792969 163.492188 64.847656 163.214844 64.957031 162.945312 C 65.070312 162.675781 65.226562 162.4375 65.429688 162.234375 C 65.636719 162.027344 65.871094 161.871094 66.136719 161.757812 C 66.40625 161.648438 66.683594 161.589844 66.972656 161.589844 L 71.328125 161.589844 C 71.617188 161.589844 71.898438 161.648438 72.164062 161.757812 C 72.429688 161.871094 72.667969 162.027344 72.871094 162.234375 C 73.074219 162.4375 73.234375 162.675781 73.34375 162.945312 C 73.453125 163.214844 73.507812 163.492188 73.507812 163.78125 C 73.507812 164.074219 73.453125 164.351562 73.34375 164.621094 C 73.234375 164.890625 73.074219 165.128906 72.871094 165.332031 C 72.667969 165.539062 72.429688 165.695312 72.164062 165.808594 C 71.898438 165.917969 71.617188 165.976562 71.328125 165.976562 Z M 71.328125 165.976562 "/><path style=" stroke:none;fill-rule:nonzero;fill:rgb(0%,66.668701%,65.879822%);fill-opacity:1;" d="M 71.328125 174.742188 L 66.972656 174.742188 C 66.683594 174.742188 66.40625 174.6875 66.136719 174.574219 C 65.871094 174.464844 65.636719 174.304688 65.429688 174.097656 C 65.226562 173.894531 65.070312 173.65625 64.957031 173.386719 C 64.847656 173.121094 64.792969 172.839844 64.792969 172.550781 C 64.792969 172.257812 64.847656 171.980469 64.957031 171.710938 C 65.070312 171.441406 65.226562 171.207031 65.429688 171 C 65.636719 170.792969 65.871094 170.636719 66.136719 170.523438 C 66.40625 170.414062 66.683594 170.359375 66.972656 170.359375 L 71.328125 170.359375 C 71.617188 170.359375 71.898438 170.414062 72.164062 170.523438 C 72.429688 170.636719 72.667969 170.792969 72.871094 171 C 73.074219 171.207031 73.234375 171.441406 73.34375 171.710938 C 73.453125 171.980469 73.507812 172.257812 73.507812 172.550781 C 73.507812 172.839844 73.453125 173.121094 73.34375 173.386719 C 73.234375 173.65625 73.074219 173.894531 72.871094 174.097656 C 72.667969 174.304688 72.429688 174.464844 72.164062 174.574219 C 71.898438 174.6875 71.617188 174.742188 71.328125 174.742188 Z M 71.328125 174.742188 "/><path style=" stroke:none;fill-rule:nonzero;fill:rgb(0%,66.668701%,65.879822%);fill-opacity:1;" d="M 71.328125 181.316406 C 71.328125 181.605469 71.273438 181.886719 71.164062 182.15625 C 71.054688 182.421875 70.894531 182.660156 70.691406 182.867188 C 70.488281 183.070312 70.25 183.230469 69.984375 183.339844 C 69.71875 183.453125 69.441406 183.507812 69.152344 183.507812 C 68.863281 183.507812 68.582031 183.453125 68.316406 183.339844 C 68.050781 183.230469 67.8125 183.070312 67.609375 182.867188 C 67.40625 182.660156 67.246094 182.421875 67.136719 182.15625 C 67.027344 181.886719 66.972656 181.605469 66.972656 181.316406 C 66.972656 181.027344 67.027344 180.746094 67.136719 180.476562 C 67.246094 180.210938 67.40625 179.972656 67.609375 179.765625 C 67.8125 179.5625 68.050781 179.402344 68.316406 179.292969 C 68.582031 179.179688 68.863281 179.125 69.152344 179.125 C 69.441406 179.125 69.71875 179.179688 69.984375 179.292969 C 70.25 179.402344 70.488281 179.5625 70.691406 179.765625 C 70.894531 179.972656 71.054688 180.210938 71.164062 180.476562 C 71.273438 180.746094 71.328125 181.027344 71.328125 181.316406 Z M 71.328125 181.316406 "/><path style=" stroke:none;fill-rule:nonzero;fill:rgb(0%,66.668701%,65.879822%);fill-opacity:1;" d="M 265.289062 164.050781 L 222.234375 164.050781 L 222.234375 193.699219 L 265.289062 193.699219 L 265.289062 164.050781 "/><g clip-rule="nonzero" clip-path="url(#clip2)"><path style=" stroke:none;fill-rule:nonzero;fill:rgb(0%,66.668701%,65.879822%);fill-opacity:1;" d="M 330.753906 161.011719 C 330.753906 162 329.949219 162.804688 328.960938 162.804688 L 158.5625 162.804688 C 157.570312 162.804688 156.761719 162 156.761719 161.011719 L 156.761719 64.515625 C 156.761719 63.523438 157.570312 62.722656 158.5625 62.722656 L 328.960938 62.722656 C 329.949219 62.722656 330.753906 63.523438 330.753906 64.515625 Z M 328.960938 58.355469 L 158.5625 58.355469 C 155.152344 58.355469 152.394531 61.113281 152.394531 64.515625 L 152.394531 166.144531 C 152.394531 169.542969 155.152344 172.304688 158.5625 172.304688 L 328.960938 172.304688 C 332.367188 172.304688 335.125 169.542969 335.125 166.144531 L 335.125 64.515625 C 335.125 61.113281 332.367188 58.355469 328.960938 58.355469 "/></g><g clip-rule="nonzero" clip-path="url(#clip3)"><path style=" stroke:none;fill-rule:nonzero;fill:rgb(0%,66.668701%,65.879822%);fill-opacity:1;" d="M 285.335938 198.550781 L 285.335938 191.785156 C 285.335938 190.238281 284.082031 188.984375 282.53125 188.984375 L 204.992188 188.984375 C 203.441406 188.984375 202.183594 190.238281 202.183594 191.785156 L 202.183594 198.550781 L 285.335938 198.550781 "/></g><path style=" stroke:none;fill-rule:nonzero;fill:rgb(0%,66.668701%,65.879822%);fill-opacity:1;" d="M 179.609375 137.703125 C 179.269531 138.035156 178.226562 137.789062 177.785156 137.738281 C 177.160156 137.660156 176.535156 137.53125 175.933594 137.335938 C 174.914062 137 173.972656 136.449219 173.230469 135.667969 C 171.390625 133.734375 171.191406 131.03125 171.144531 128.496094 C 171.078125 125.339844 171.375 122.101562 170.84375 118.976562 C 170.492188 116.890625 169.742188 114.773438 168.1875 113.277344 C 168.027344 113.121094 167.859375 112.972656 167.683594 112.832031 C 167.546875 112.726562 167.59375 112.589844 167.59375 112.417969 C 167.59375 112.09375 168.195312 111.742188 168.421875 111.496094 C 169.109375 110.753906 169.628906 109.875 170.015625 108.949219 C 171.394531 105.625 171.136719 101.921875 171.136719 98.398438 C 171.136719 96.195312 171.046875 93.90625 171.648438 91.765625 C 172.265625 89.5625 173.921875 87.957031 176.117188 87.339844 C 176.6875 87.179688 177.273438 87.078125 177.863281 87.015625 C 178.332031 86.964844 179.398438 86.730469 179.78125 87.070312 C 180.109375 87.359375 179.921875 88.410156 179.921875 88.773438 C 179.921875 89.386719 179.921875 89.992188 179.921875 90.601562 C 179.921875 91.25 179.320312 91.160156 178.84375 91.1875 C 178.226562 91.222656 177.59375 91.328125 177.019531 91.578125 C 175.34375 92.304688 175.011719 94.226562 174.898438 95.863281 C 174.761719 97.988281 175.03125 100.113281 175.136719 102.234375 C 175.320312 105.828125 175.0625 110.09375 172.148438 112.636719 C 174.191406 114.503906 174.910156 117.410156 175.078125 120.070312 C 175.234375 122.53125 174.867188 124.96875 174.867188 127.421875 C 174.867188 128.8125 174.917969 130.222656 175.433594 131.535156 C 175.921875 132.777344 177.113281 133.292969 178.375 133.425781 C 178.808594 133.46875 179.742188 133.265625 179.894531 133.832031 C 179.953125 134.046875 179.921875 134.3125 179.921875 134.535156 C 179.921875 135.296875 179.921875 136.058594 179.921875 136.824219 C 179.921875 137.285156 179.914062 137.339844 179.609375 137.703125 "/><path style=" stroke:none;fill-rule:nonzero;fill:rgb(0%,66.668701%,65.879822%);fill-opacity:1;" d="M 305.640625 87.058594 C 305.980469 86.730469 307.023438 86.972656 307.460938 87.027344 C 308.09375 87.101562 308.714844 87.230469 309.316406 87.429688 C 310.335938 87.765625 311.277344 88.316406 312.019531 89.09375 C 313.859375 91.027344 314.058594 93.730469 314.109375 96.265625 C 314.167969 99.425781 313.878906 102.664062 314.40625 105.789062 C 314.761719 107.871094 315.511719 109.992188 317.0625 111.488281 C 317.222656 111.640625 317.394531 111.789062 317.566406 111.929688 C 317.707031 112.039062 317.65625 112.175781 317.65625 112.34375 C 317.65625 112.671875 317.054688 113.023438 316.824219 113.269531 C 316.140625 114.007812 315.625 114.890625 315.234375 115.816406 C 313.855469 119.140625 314.117188 122.84375 314.117188 126.367188 C 314.117188 128.566406 314.203125 130.859375 313.601562 132.996094 C 312.984375 135.203125 311.332031 136.804688 309.136719 137.421875 C 308.566406 137.585938 307.976562 137.6875 307.386719 137.75 C 306.917969 137.796875 305.851562 138.035156 305.46875 137.691406 C 305.144531 137.40625 305.328125 136.355469 305.328125 135.988281 C 305.328125 135.378906 305.328125 134.769531 305.328125 134.164062 C 305.328125 133.511719 305.929688 133.605469 306.40625 133.574219 C 307.027344 133.539062 307.65625 133.433594 308.230469 133.1875 C 309.90625 132.460938 310.242188 130.539062 310.347656 128.898438 C 310.488281 126.769531 310.21875 124.648438 310.109375 122.53125 C 309.925781 118.9375 310.191406 114.671875 313.101562 112.121094 C 311.058594 110.257812 310.34375 107.355469 310.171875 104.695312 C 310.019531 102.234375 310.386719 99.796875 310.386719 97.34375 C 310.386719 95.953125 310.332031 94.539062 309.816406 93.230469 C 309.332031 91.984375 308.136719 91.46875 306.878906 91.339844 C 306.445312 91.292969 305.503906 91.492188 305.359375 90.933594 C 305.300781 90.714844 305.328125 90.453125 305.328125 90.226562 C 305.328125 89.46875 305.328125 88.703125 305.328125 87.941406 C 305.328125 87.476562 305.335938 87.425781 305.640625 87.058594 "/><path style=" stroke:none;fill-rule:nonzero;fill:rgb(0%,66.668701%,65.879822%);fill-opacity:1;" d="M 200.691406 72.773438 L 182.75 72.773438 L 182.75 77.421875 L 200.691406 77.421875 L 200.691406 72.773438 "/><path style=" stroke:none;fill-rule:nonzero;fill:rgb(0%,66.668701%,65.879822%);fill-opacity:1;" d="M 202.320312 72.773438 L 202.320312 77.421875 L 216.425781 77.421875 L 216.425781 72.773438 L 202.320312 72.773438 "/><path style=" stroke:none;fill-rule:nonzero;fill:rgb(0%,66.668701%,65.879822%);fill-opacity:1;" d="M 218.59375 72.773438 L 218.59375 77.421875 L 250.324219 77.421875 L 250.324219 72.773438 L 218.59375 72.773438 "/><path style=" stroke:none;fill-rule:nonzero;fill:rgb(0%,66.668701%,65.879822%);fill-opacity:1;" d="M 194.851562 70.996094 L 182.75 70.996094 L 182.75 66.347656 L 194.851562 66.347656 L 194.851562 70.996094 "/><path style=" stroke:none;fill-rule:nonzero;fill:rgb(0%,66.668701%,65.879822%);fill-opacity:1;" d="M 210.277344 80.132812 L 202.421875 80.132812 L 202.421875 84.785156 L 210.277344 84.785156 L 210.277344 80.132812 "/><path style=" stroke:none;fill-rule:nonzero;fill:rgb(0%,66.668701%,65.879822%);fill-opacity:1;" d="M 283.828125 80.132812 L 212.808594 80.132812 L 212.808594 84.785156 L 283.828125 84.785156 L 283.828125 80.132812 "/><path style=" stroke:none;fill-rule:nonzero;fill:rgb(0%,66.668701%,65.879822%);fill-opacity:1;" d="M 286.542969 80.132812 L 286.542969 84.785156 L 304.769531 84.785156 L 304.769531 80.132812 L 286.542969 80.132812 "/><path style=" stroke:none;fill-rule:nonzero;fill:rgb(0%,66.668701%,65.879822%);fill-opacity:1;" d="M 275.875 87.496094 L 218.625 87.496094 L 218.625 92.144531 L 275.875 92.144531 L 275.875 87.496094 "/><path style=" stroke:none;fill-rule:nonzero;fill:rgb(0%,66.668701%,65.879822%);fill-opacity:1;" d="M 294.679688 87.496094 L 278.042969 87.496094 L 278.042969 92.144531 L 294.679688 92.144531 L 294.679688 87.496094 "/><path style=" stroke:none;fill-rule:nonzero;fill:rgb(0%,66.668701%,65.879822%);fill-opacity:1;" d="M 206.660156 94.859375 L 202.421875 94.859375 L 202.421875 99.511719 L 206.660156 99.511719 L 206.660156 94.859375 "/><path style=" stroke:none;fill-rule:nonzero;fill:rgb(0%,66.668701%,65.879822%);fill-opacity:1;" d="M 209.917969 94.859375 L 209.917969 99.511719 L 299.019531 99.511719 L 299.019531 94.859375 L 209.917969 94.859375 "/><path style=" stroke:none;fill-rule:nonzero;fill:rgb(0%,66.668701%,65.879822%);fill-opacity:1;" d="M 301.371094 94.859375 L 301.371094 99.511719 L 304.769531 99.511719 L 304.769531 94.859375 L 301.371094 94.859375 "/><path style=" stroke:none;fill-rule:nonzero;fill:rgb(0%,66.668701%,65.879822%);fill-opacity:1;" d="M 192.917969 102.222656 L 182.75 102.222656 L 182.75 106.871094 L 192.917969 106.871094 L 192.917969 102.222656 "/><path style=" stroke:none;fill-rule:nonzero;fill:rgb(0%,66.668701%,65.879822%);fill-opacity:1;" d="M 207.746094 102.222656 L 195.449219 102.222656 L 195.449219 106.871094 L 207.746094 106.871094 L 207.746094 102.222656 "/><path style=" stroke:none;fill-rule:nonzero;fill:rgb(0%,66.668701%,65.879822%);fill-opacity:1;" d="M 211.359375 102.222656 L 211.359375 106.871094 L 216.542969 106.871094 L 216.542969 102.222656 L 211.359375 102.222656 "/><path style=" stroke:none;fill-rule:nonzero;fill:rgb(0%,66.668701%,65.879822%);fill-opacity:1;" d="M 261.765625 109.585938 L 224.5625 109.585938 L 224.5625 114.207031 L 221.308594 114.207031 L 221.308594 109.585938 L 202.421875 109.585938 L 202.421875 114.234375 L 261.765625 114.234375 L 261.765625 109.585938 "/><path style=" stroke:none;fill-rule:nonzero;fill:rgb(0%,66.668701%,65.879822%);fill-opacity:1;" d="M 262.488281 109.585938 L 262.488281 114.234375 L 268.710938 114.234375 L 268.710938 109.585938 L 262.488281 109.585938 "/><path style=" stroke:none;fill-rule:nonzero;fill:rgb(0%,66.668701%,65.879822%);fill-opacity:1;" d="M 215.160156 116.949219 L 211.964844 116.949219 L 211.964844 121.597656 L 215.160156 121.597656 L 215.160156 116.949219 "/><path style=" stroke:none;fill-rule:nonzero;fill:rgb(0%,66.668701%,65.879822%);fill-opacity:1;" d="M 229.992188 116.949219 L 217.511719 116.949219 L 217.511719 121.597656 L 229.992188 121.597656 L 229.992188 116.949219 "/><path style=" stroke:none;fill-rule:nonzero;fill:rgb(0%,66.668701%,65.879822%);fill-opacity:1;" d="M 284.371094 116.949219 L 231.800781 116.949219 L 231.800781 121.597656 L 284.371094 121.597656 L 284.371094 116.949219 "/><path style=" stroke:none;fill-rule:nonzero;fill:rgb(0%,66.668701%,65.879822%);fill-opacity:1;" d="M 287.269531 116.949219 L 287.269531 121.597656 L 299.734375 121.597656 L 299.734375 116.949219 L 287.269531 116.949219 "/><path style=" stroke:none;fill-rule:nonzero;fill:rgb(0%,66.668701%,65.879822%);fill-opacity:1;" d="M 225.289062 124.3125 L 211.964844 124.3125 L 211.964844 128.960938 L 225.289062 128.960938 L 225.289062 124.3125 "/><path style=" stroke:none;fill-rule:nonzero;fill:rgb(0%,66.668701%,65.879822%);fill-opacity:1;" d="M 273.519531 124.3125 L 227.640625 124.3125 L 227.640625 128.960938 L 273.519531 128.960938 L 273.519531 124.3125 "/><path style=" stroke:none;fill-rule:nonzero;fill:rgb(0%,66.668701%,65.879822%);fill-opacity:1;" d="M 278.945312 124.3125 L 278.945312 128.960938 L 304.769531 128.960938 L 304.769531 124.3125 L 278.945312 124.3125 "/><path style=" stroke:none;fill-rule:nonzero;fill:rgb(0%,66.668701%,65.879822%);fill-opacity:1;" d="M 282.742188 131.675781 L 235.777344 131.675781 L 235.777344 136.324219 L 282.742188 136.324219 L 282.742188 131.675781 "/><path style=" stroke:none;fill-rule:nonzero;fill:rgb(0%,66.668701%,65.879822%);fill-opacity:1;" d="M 232.339844 131.675781 L 211.964844 131.675781 L 211.964844 136.324219 L 232.339844 136.324219 L 232.339844 131.675781 "/><path style=" stroke:none;fill-rule:nonzero;fill:rgb(0%,66.668701%,65.879822%);fill-opacity:1;" d="M 257.894531 143.691406 L 202.421875 143.691406 L 202.421875 139.039062 L 257.894531 139.039062 L 257.894531 143.691406 "/><path style=" stroke:none;fill-rule:nonzero;fill:rgb(0%,66.668701%,65.879822%);fill-opacity:1;" d="M 189.480469 146.402344 L 182.75 146.402344 L 182.75 151.054688 L 189.480469 151.054688 L 189.480469 146.402344 "/><path style=" stroke:none;fill-rule:nonzero;fill:rgb(0%,66.668701%,65.879822%);fill-opacity:1;" d="M 192.007812 146.402344 L 192.007812 151.054688 L 275.773438 151.054688 L 275.773438 146.402344 L 192.007812 146.402344 "/><path style=" stroke:none;fill-rule:nonzero;fill:rgb(0%,66.668701%,65.879822%);fill-opacity:1;" d="M 194.851562 158.417969 L 182.75 158.417969 L 182.75 153.765625 L 194.851562 153.765625 L 194.851562 158.417969 "/><g clip-rule="nonzero" clip-path="url(#clip4)"><path style=" stroke:none;fill-rule:nonzero;fill:rgb(0%,66.668701%,65.879822%);fill-opacity:1;" d="M 398.308594 181.671875 L 350.066406 181.671875 L 350.066406 130.675781 L 398.308594 130.675781 L 398.308594 133.414062 L 401.144531 133.414062 L 401.144531 126.320312 C 401.144531 125.851562 401.101562 125.390625 401.007812 124.933594 C 400.917969 124.476562 400.785156 124.035156 400.605469 123.601562 C 400.425781 123.171875 400.207031 122.765625 399.949219 122.375 C 399.691406 121.988281 399.398438 121.628906 399.066406 121.300781 C 398.738281 120.972656 398.378906 120.675781 397.992188 120.417969 C 397.605469 120.160156 397.195312 119.941406 396.765625 119.761719 C 396.335938 119.585938 395.890625 119.449219 395.433594 119.359375 C 394.976562 119.269531 394.515625 119.222656 394.050781 119.222656 L 354.324219 119.222656 C 353.859375 119.222656 353.398438 119.269531 352.941406 119.359375 C 352.484375 119.449219 352.039062 119.585938 351.609375 119.761719 C 351.179688 119.941406 350.769531 120.160156 350.382812 120.417969 C 349.996094 120.675781 349.636719 120.972656 349.308594 121.300781 C 348.980469 121.628906 348.683594 121.988281 348.425781 122.375 C 348.167969 122.765625 347.949219 123.171875 347.769531 123.601562 C 347.59375 124.035156 347.457031 124.476562 347.367188 124.933594 C 347.277344 125.390625 347.230469 125.851562 347.230469 126.320312 L 347.230469 191.605469 C 347.230469 192.074219 347.277344 192.535156 347.367188 192.992188 C 347.457031 193.449219 347.59375 193.890625 347.769531 194.324219 C 347.949219 194.753906 348.167969 195.164062 348.425781 195.550781 C 348.683594 195.9375 348.980469 196.296875 349.308594 196.625 C 349.636719 196.953125 349.996094 197.25 350.382812 197.507812 C 350.769531 197.765625 351.179688 197.984375 351.609375 198.164062 C 352.039062 198.34375 352.484375 198.476562 352.941406 198.566406 C 353.398438 198.660156 353.859375 198.703125 354.324219 198.703125 L 394.050781 198.703125 C 394.515625 198.703125 394.976562 198.660156 395.433594 198.566406 C 395.890625 198.476562 396.335938 198.34375 396.765625 198.164062 C 397.195312 197.984375 397.605469 197.765625 397.992188 197.507812 C 398.378906 197.25 398.738281 196.953125 399.066406 196.625 C 399.398438 196.296875 399.691406 195.9375 399.949219 195.550781 C 400.207031 195.164062 400.425781 194.753906 400.605469 194.324219 C 400.785156 193.890625 400.917969 193.449219 401.007812 192.992188 C 401.101562 192.535156 401.144531 192.074219 401.144531 191.605469 L 401.144531 177.414062 L 398.308594 177.414062 Z M 378.445312 123.480469 L 381.28125 123.480469 L 381.28125 126.320312 L 378.445312 126.320312 Z M 368.511719 123.480469 L 375.605469 123.480469 L 375.605469 126.320312 L 368.511719 126.320312 Z M 374.1875 194.445312 C 373.910156 194.445312 373.632812 194.417969 373.359375 194.363281 C 373.082031 194.308594 372.816406 194.230469 372.558594 194.121094 C 372.300781 194.015625 372.054688 193.882812 371.824219 193.726562 C 371.589844 193.574219 371.375 193.398438 371.179688 193.199219 C 370.980469 193 370.804688 192.785156 370.648438 192.554688 C 370.492188 192.320312 370.363281 192.074219 370.253906 191.816406 C 370.148438 191.558594 370.066406 191.292969 370.011719 191.019531 C 369.957031 190.746094 369.929688 190.46875 369.929688 190.1875 C 369.929688 189.910156 369.957031 189.632812 370.011719 189.355469 C 370.066406 189.082031 370.148438 188.816406 370.253906 188.558594 C 370.363281 188.300781 370.492188 188.054688 370.648438 187.824219 C 370.804688 187.589844 370.980469 187.375 371.179688 187.175781 C 371.375 186.980469 371.589844 186.804688 371.824219 186.648438 C 372.054688 186.492188 372.300781 186.359375 372.558594 186.253906 C 372.816406 186.148438 373.082031 186.066406 373.359375 186.011719 C 373.632812 185.957031 373.910156 185.929688 374.1875 185.929688 C 374.46875 185.929688 374.742188 185.957031 375.019531 186.011719 C 375.292969 186.066406 375.558594 186.148438 375.816406 186.253906 C 376.074219 186.359375 376.320312 186.492188 376.550781 186.648438 C 376.785156 186.804688 377 186.980469 377.199219 187.175781 C 377.394531 187.375 377.570312 187.589844 377.726562 187.824219 C 377.882812 188.054688 378.011719 188.300781 378.121094 188.558594 C 378.226562 188.816406 378.308594 189.082031 378.363281 189.355469 C 378.417969 189.632812 378.445312 189.910156 378.445312 190.1875 C 378.445312 190.46875 378.417969 190.746094 378.363281 191.019531 C 378.308594 191.292969 378.226562 191.558594 378.121094 191.816406 C 378.011719 192.074219 377.882812 192.320312 377.726562 192.554688 C 377.570312 192.785156 377.394531 193 377.199219 193.199219 C 377 193.398438 376.785156 193.574219 376.550781 193.726562 C 376.320312 193.882812 376.074219 194.015625 375.816406 194.121094 C 375.558594 194.230469 375.292969 194.308594 375.019531 194.363281 C 374.742188 194.417969 374.46875 194.445312 374.1875 194.445312 Z M 375.605469 190.1875 C 375.605469 190.375 375.570312 190.558594 375.5 190.730469 C 375.425781 190.90625 375.324219 191.058594 375.191406 191.191406 C 375.058594 191.324219 374.90625 191.425781 374.730469 191.5 C 374.558594 191.570312 374.375 191.605469 374.1875 191.605469 C 374 191.605469 373.820312 191.570312 373.644531 191.5 C 373.472656 191.425781 373.316406 191.324219 373.183594 191.191406 C 373.050781 191.058594 372.949219 190.90625 372.878906 190.730469 C 372.804688 190.558594 372.769531 190.375 372.769531 190.1875 C 372.769531 190 372.804688 189.820312 372.878906 189.644531 C 372.949219 189.472656 373.050781 189.316406 373.183594 189.183594 C 373.316406 189.050781 373.472656 188.949219 373.644531 188.875 C 373.820312 188.804688 374 188.769531 374.1875 188.769531 C 374.375 188.769531 374.558594 188.804688 374.730469 188.875 C 374.90625 188.949219 375.058594 189.050781 375.191406 189.183594 C 375.324219 189.316406 375.425781 189.472656 375.5 189.644531 C 375.570312 189.820312 375.605469 190 375.605469 190.1875 Z M 409.660156 136.253906 L 361.417969 136.253906 C 361.140625 136.253906 360.863281 136.28125 360.589844 136.335938 C 360.3125 136.390625 360.046875 136.472656 359.789062 136.578125 C 359.53125 136.683594 359.285156 136.816406 359.054688 136.972656 C 358.820312 137.128906 358.605469 137.304688 358.410156 137.5 C 358.210938 137.699219 358.035156 137.914062 357.878906 138.144531 C 357.722656 138.378906 357.59375 138.625 357.484375 138.882812 C 357.378906 139.140625 357.296875 139.40625 357.242188 139.679688 C 357.1875 139.957031 357.160156 140.234375 357.160156 140.511719 L 357.160156 163.222656 C 357.160156 163.5 357.1875 163.777344 357.242188 164.050781 C 357.296875 164.324219 357.378906 164.59375 357.484375 164.851562 C 357.59375 165.109375 357.722656 165.355469 357.878906 165.585938 C 358.035156 165.820312 358.210938 166.035156 358.410156 166.230469 C 358.605469 166.429688 358.820312 166.605469 359.054688 166.761719 C 359.285156 166.917969 359.53125 167.046875 359.789062 167.15625 C 360.046875 167.261719 360.3125 167.34375 360.589844 167.398438 C 360.863281 167.453125 361.140625 167.480469 361.417969 167.480469 L 409.660156 167.480469 C 409.9375 167.480469 410.214844 167.453125 410.488281 167.398438 C 410.761719 167.34375 411.027344 167.261719 411.285156 167.15625 C 411.546875 167.046875 411.789062 166.917969 412.023438 166.761719 C 412.253906 166.605469 412.46875 166.429688 412.667969 166.230469 C 412.867188 166.035156 413.042969 165.820312 413.199219 165.585938 C 413.351562 165.355469 413.484375 165.109375 413.589844 164.851562 C 413.699219 164.59375 413.777344 164.324219 413.832031 164.050781 C 413.886719 163.777344 413.914062 163.5 413.914062 163.222656 L 413.914062 140.511719 C 413.914062 140.234375 413.886719 139.957031 413.832031 139.679688 C 413.777344 139.40625 413.699219 139.140625 413.589844 138.882812 C 413.484375 138.625 413.351562 138.378906 413.199219 138.144531 C 413.042969 137.914062 412.867188 137.699219 412.667969 137.5 C 412.46875 137.304688 412.253906 137.128906 412.023438 136.972656 C 411.789062 136.816406 411.546875 136.683594 411.285156 136.578125 C 411.027344 136.472656 410.761719 136.390625 410.488281 136.335938 C 410.214844 136.28125 409.9375 136.253906 409.660156 136.253906 Z M 411.078125 163.222656 C 411.078125 163.410156 411.039062 163.589844 410.96875 163.765625 C 410.898438 163.9375 410.792969 164.089844 410.660156 164.226562 C 410.527344 164.359375 410.375 164.460938 410.199219 164.53125 C 410.027344 164.605469 409.847656 164.640625 409.660156 164.640625 L 361.417969 164.640625 C 361.230469 164.640625 361.050781 164.605469 360.875 164.53125 C 360.703125 164.460938 360.546875 164.359375 360.414062 164.226562 C 360.28125 164.089844 360.179688 163.9375 360.109375 163.765625 C 360.035156 163.589844 360 163.410156 360 163.222656 L 360 140.511719 C 360 140.324219 360.035156 140.144531 360.109375 139.96875 C 360.179688 139.796875 360.28125 139.640625 360.414062 139.507812 C 360.546875 139.375 360.703125 139.273438 360.875 139.199219 C 361.050781 139.128906 361.230469 139.09375 361.417969 139.09375 L 409.660156 139.09375 C 409.847656 139.09375 410.027344 139.128906 410.199219 139.199219 C 410.375 139.273438 410.527344 139.375 410.660156 139.507812 C 410.792969 139.640625 410.898438 139.796875 410.96875 139.96875 C 411.039062 140.144531 411.078125 140.324219 411.078125 140.511719 Z M 399.726562 151.867188 C 399.726562 152.40625 399.496094 152.8125 399.03125 153.085938 L 384.84375 161.601562 C 384.621094 161.734375 384.378906 161.800781 384.121094 161.800781 C 383.871094 161.800781 383.640625 161.738281 383.425781 161.617188 C 383.203125 161.492188 383.023438 161.320312 382.894531 161.097656 C 382.765625 160.875 382.699219 160.636719 382.699219 160.382812 L 382.699219 143.351562 C 382.699219 143.09375 382.765625 142.859375 382.894531 142.636719 C 383.019531 142.417969 383.195312 142.242188 383.417969 142.117188 C 383.640625 141.992188 383.878906 141.929688 384.132812 141.933594 C 384.386719 141.933594 384.625 142 384.84375 142.128906 L 399.03125 150.644531 C 399.496094 150.921875 399.726562 151.328125 399.726562 151.867188 Z M 365.675781 171.738281 L 401.144531 171.738281 L 401.144531 174.574219 L 365.675781 174.574219 L 365.675781 175.996094 L 362.835938 175.996094 L 362.835938 174.574219 L 357.160156 174.574219 L 357.160156 171.738281 L 362.835938 171.738281 L 362.835938 170.316406 L 365.675781 170.316406 Z M 377.027344 141.929688 L 379.863281 141.929688 L 379.863281 154.707031 L 377.027344 154.707031 Z M 371.351562 149.027344 L 374.1875 149.027344 L 374.1875 161.800781 L 371.351562 161.800781 Z M 377.027344 157.542969 L 379.863281 157.542969 L 379.863281 161.800781 L 377.027344 161.800781 Z M 371.351562 141.929688 L 374.1875 141.929688 L 374.1875 146.1875 L 371.351562 146.1875 Z M 362.835938 141.929688 L 365.675781 141.929688 L 365.675781 144.769531 L 362.835938 144.769531 Z M 362.835938 147.609375 L 365.675781 147.609375 L 365.675781 150.445312 L 362.835938 150.445312 Z M 362.835938 153.285156 L 365.675781 153.285156 L 365.675781 156.125 L 362.835938 156.125 Z M 362.835938 158.964844 L 365.675781 158.964844 L 365.675781 161.800781 L 362.835938 161.800781 Z M 405.402344 141.929688 L 408.238281 141.929688 L 408.238281 144.769531 L 405.402344 144.769531 Z M 405.402344 147.609375 L 408.238281 147.609375 L 408.238281 150.445312 L 405.402344 150.445312 Z M 405.402344 153.285156 L 408.238281 153.285156 L 408.238281 156.125 L 405.402344 156.125 Z M 405.402344 158.964844 L 408.238281 158.964844 L 408.238281 161.800781 L 405.402344 161.800781 Z M 403.984375 171.738281 L 413.914062 171.738281 L 413.914062 174.574219 L 403.984375 174.574219 Z M 403.984375 171.738281 "/></g><g clip-rule="nonzero" clip-path="url(#clip5)"><path style=" stroke:none;fill-rule:nonzero;fill:rgb(0%,66.668701%,65.879822%);fill-opacity:1;" d="M 463.9375 162.832031 L 433.347656 162.832031 C 432.957031 162.832031 432.582031 162.757812 432.222656 162.609375 C 431.863281 162.457031 431.542969 162.246094 431.269531 161.972656 C 430.992188 161.695312 430.78125 161.378906 430.628906 161.019531 C 430.480469 160.660156 430.40625 160.285156 430.40625 159.894531 L 430.40625 159.058594 C 430.40625 158.667969 430.480469 158.292969 430.628906 157.933594 C 430.78125 157.574219 430.992188 157.257812 431.269531 156.980469 C 431.542969 156.707031 431.863281 156.496094 432.222656 156.34375 C 432.582031 156.195312 432.957031 156.121094 433.347656 156.121094 L 463.9375 156.121094 C 464.324219 156.121094 464.699219 156.195312 465.0625 156.34375 C 465.421875 156.496094 465.738281 156.707031 466.015625 156.980469 C 466.292969 157.257812 466.503906 157.574219 466.652344 157.933594 C 466.800781 158.292969 466.875 158.667969 466.875 159.058594 L 466.875 159.980469 C 466.867188 160.363281 466.785156 160.726562 466.628906 161.078125 C 466.476562 161.425781 466.261719 161.734375 465.984375 162 C 465.710938 162.269531 465.398438 162.472656 465.042969 162.617188 C 464.6875 162.757812 464.320312 162.832031 463.9375 162.832031 Z M 433.347656 157.800781 C 433.179688 157.800781 433.019531 157.832031 432.867188 157.894531 C 432.710938 157.960938 432.574219 158.050781 432.457031 158.167969 C 432.339844 158.285156 432.246094 158.421875 432.183594 158.574219 C 432.121094 158.730469 432.085938 158.890625 432.085938 159.058594 L 432.085938 159.980469 C 432.085938 160.148438 432.121094 160.308594 432.183594 160.460938 C 432.246094 160.617188 432.339844 160.75 432.457031 160.871094 C 432.574219 160.988281 432.710938 161.078125 432.867188 161.140625 C 433.019531 161.207031 433.179688 161.238281 433.347656 161.238281 L 463.9375 161.238281 C 464.101562 161.238281 464.265625 161.207031 464.417969 161.140625 C 464.574219 161.078125 464.707031 160.988281 464.828125 160.871094 C 464.945312 160.75 465.035156 160.617188 465.101562 160.460938 C 465.164062 160.308594 465.195312 160.148438 465.195312 159.980469 L 465.195312 159.058594 C 465.195312 158.890625 465.164062 158.730469 465.101562 158.574219 C 465.035156 158.421875 464.945312 158.285156 464.828125 158.167969 C 464.707031 158.050781 464.574219 157.960938 464.417969 157.894531 C 464.265625 157.832031 464.101562 157.800781 463.9375 157.800781 Z M 433.347656 157.800781 "/></g><path style=" stroke:none;fill-rule:nonzero;fill:rgb(0%,66.668701%,65.879822%);fill-opacity:1;" d="M 457.886719 188.410156 L 439.3125 188.410156 C 438.863281 188.410156 438.414062 188.367188 437.96875 188.277344 C 437.527344 188.191406 437.09375 188.058594 436.675781 187.886719 C 436.257812 187.714844 435.863281 187.5 435.484375 187.25 C 435.109375 187 434.761719 186.714844 434.441406 186.394531 C 434.121094 186.078125 433.835938 185.730469 433.585938 185.355469 C 433.332031 184.976562 433.121094 184.582031 432.949219 184.164062 C 432.773438 183.746094 432.644531 183.316406 432.554688 182.875 C 432.46875 182.433594 432.421875 181.984375 432.421875 181.53125 L 432.421875 168.953125 C 432.421875 168.722656 432.503906 168.523438 432.667969 168.359375 C 432.832031 168.195312 433.03125 168.113281 433.265625 168.113281 C 433.496094 168.113281 433.695312 168.195312 433.859375 168.359375 C 434.023438 168.523438 434.105469 168.722656 434.105469 168.953125 L 434.105469 181.53125 C 434.105469 181.875 434.136719 182.210938 434.203125 182.546875 C 434.269531 182.882812 434.371094 183.207031 434.5 183.523438 C 434.632812 183.839844 434.792969 184.136719 434.980469 184.421875 C 435.171875 184.707031 435.386719 184.96875 435.628906 185.210938 C 435.871094 185.449219 436.136719 185.667969 436.417969 185.855469 C 436.703125 186.046875 437.003906 186.207031 437.320312 186.335938 C 437.636719 186.46875 437.960938 186.566406 438.296875 186.632812 C 438.632812 186.699219 438.972656 186.734375 439.3125 186.734375 L 457.886719 186.734375 C 458.226562 186.734375 458.566406 186.699219 458.902344 186.632812 C 459.238281 186.566406 459.5625 186.46875 459.878906 186.335938 C 460.195312 186.207031 460.496094 186.046875 460.78125 185.855469 C 461.0625 185.667969 461.328125 185.449219 461.570312 185.210938 C 461.8125 184.96875 462.027344 184.707031 462.21875 184.421875 C 462.40625 184.136719 462.566406 183.839844 462.699219 183.523438 C 462.828125 183.207031 462.929688 182.882812 462.996094 182.546875 C 463.0625 182.210938 463.09375 181.875 463.09375 181.53125 L 463.09375 162.832031 L 434.105469 162.832031 L 434.105469 166.4375 C 434.105469 166.667969 434.023438 166.867188 433.859375 167.03125 C 433.695312 167.195312 433.496094 167.277344 433.265625 167.277344 C 433.03125 167.277344 432.832031 167.195312 432.667969 167.03125 C 432.503906 166.867188 432.421875 166.667969 432.421875 166.4375 L 432.421875 161.992188 C 432.421875 161.761719 432.503906 161.5625 432.667969 161.398438 C 432.832031 161.234375 433.03125 161.152344 433.265625 161.152344 L 463.9375 161.152344 C 464.167969 161.152344 464.367188 161.234375 464.53125 161.398438 C 464.695312 161.5625 464.777344 161.761719 464.777344 161.992188 L 464.777344 181.53125 C 464.777344 181.984375 464.730469 182.433594 464.644531 182.875 C 464.554688 183.316406 464.425781 183.746094 464.25 184.164062 C 464.078125 184.582031 463.867188 184.976562 463.613281 185.355469 C 463.363281 185.730469 463.078125 186.078125 462.757812 186.394531 C 462.4375 186.714844 462.089844 187 461.714844 187.25 C 461.335938 187.5 460.941406 187.714844 460.523438 187.886719 C 460.105469 188.058594 459.671875 188.191406 459.230469 188.277344 C 458.785156 188.367188 458.339844 188.410156 457.886719 188.410156 Z M 457.886719 188.410156 "/><path style=" stroke:none;fill-rule:nonzero;fill:rgb(0%,66.668701%,65.879822%);fill-opacity:1;" d="M 464.945312 193.527344 L 433.347656 193.527344 C 432.957031 193.527344 432.582031 193.453125 432.222656 193.300781 C 431.863281 193.152344 431.542969 192.941406 431.269531 192.664062 C 430.992188 192.390625 430.78125 192.074219 430.628906 191.714844 C 430.480469 191.355469 430.40625 190.980469 430.40625 190.589844 L 430.40625 189.667969 C 430.40625 189.277344 430.480469 188.902344 430.628906 188.542969 C 430.78125 188.183594 430.992188 187.867188 431.269531 187.59375 C 431.542969 187.316406 431.863281 187.105469 432.222656 186.957031 C 432.582031 186.808594 432.957031 186.734375 433.347656 186.734375 L 464.945312 186.734375 C 465.335938 186.734375 465.710938 186.808594 466.070312 186.957031 C 466.429688 187.105469 466.75 187.316406 467.023438 187.59375 C 467.300781 187.867188 467.511719 188.183594 467.660156 188.542969 C 467.8125 188.902344 467.886719 189.277344 467.886719 189.667969 L 467.886719 190.589844 C 467.886719 190.980469 467.8125 191.355469 467.660156 191.714844 C 467.511719 192.074219 467.300781 192.390625 467.023438 192.664062 C 466.75 192.941406 466.429688 193.152344 466.070312 193.300781 C 465.710938 193.453125 465.335938 193.527344 464.945312 193.527344 Z M 433.347656 188.410156 C 433.179688 188.410156 433.019531 188.441406 432.867188 188.503906 C 432.710938 188.570312 432.574219 188.660156 432.457031 188.777344 C 432.339844 188.894531 432.246094 189.03125 432.183594 189.1875 C 432.121094 189.339844 432.085938 189.5 432.085938 189.667969 L 432.085938 190.589844 C 432.085938 190.757812 432.121094 190.917969 432.183594 191.070312 C 432.246094 191.226562 432.339844 191.363281 432.457031 191.480469 C 432.574219 191.597656 432.710938 191.6875 432.867188 191.753906 C 433.019531 191.816406 433.179688 191.847656 433.347656 191.847656 L 464.945312 191.847656 C 465.109375 191.847656 465.273438 191.816406 465.425781 191.753906 C 465.582031 191.6875 465.71875 191.597656 465.835938 191.480469 C 465.953125 191.363281 466.042969 191.226562 466.109375 191.070312 C 466.171875 190.917969 466.203125 190.757812 466.203125 190.589844 L 466.203125 189.667969 C 466.203125 189.5 466.171875 189.339844 466.109375 189.1875 C 466.042969 189.03125 465.953125 188.894531 465.835938 188.777344 C 465.71875 188.660156 465.582031 188.570312 465.425781 188.503906 C 465.273438 188.441406 465.109375 188.410156 464.945312 188.410156 Z M 433.347656 188.410156 "/><g clip-rule="nonzero" clip-path="url(#clip6)"><path style=" stroke:none;fill-rule:nonzero;fill:rgb(0%,66.668701%,65.879822%);fill-opacity:1;" d="M 452.339844 198.558594 L 449.820312 198.558594 C 449.585938 198.558594 449.386719 198.476562 449.222656 198.3125 C 449.058594 198.148438 448.976562 197.949219 448.976562 197.71875 C 448.976562 197.488281 449.058594 197.289062 449.222656 197.125 C 449.386719 196.960938 449.585938 196.878906 449.820312 196.878906 L 452.339844 196.878906 C 452.570312 196.878906 452.769531 196.960938 452.933594 197.125 C 453.097656 197.289062 453.179688 197.488281 453.179688 197.71875 C 453.179688 197.949219 453.097656 198.148438 452.933594 198.3125 C 452.769531 198.476562 452.570312 198.558594 452.339844 198.558594 Z M 452.339844 198.558594 "/></g><g clip-rule="nonzero" clip-path="url(#clip7)"><path style=" stroke:none;fill-rule:nonzero;fill:rgb(0%,66.668701%,65.879822%);fill-opacity:1;" d="M 468.976562 198.558594 L 454.859375 198.558594 C 454.628906 198.558594 454.429688 198.476562 454.265625 198.3125 C 454.101562 198.148438 454.019531 197.949219 454.019531 197.71875 C 454.019531 197.488281 454.101562 197.289062 454.265625 197.125 C 454.429688 196.960938 454.628906 196.878906 454.859375 196.878906 L 468.976562 196.878906 C 469.144531 196.878906 469.304688 196.847656 469.460938 196.785156 C 469.613281 196.71875 469.75 196.628906 469.867188 196.511719 C 469.988281 196.394531 470.078125 196.257812 470.140625 196.105469 C 470.207031 195.949219 470.238281 195.789062 470.238281 195.621094 L 470.238281 194.785156 C 470.238281 194.617188 470.207031 194.457031 470.140625 194.300781 C 470.078125 194.148438 469.988281 194.011719 469.867188 193.894531 C 469.75 193.777344 469.613281 193.683594 469.460938 193.621094 C 469.304688 193.558594 469.144531 193.527344 468.976562 193.527344 L 429.230469 193.527344 C 429.0625 193.527344 428.902344 193.558594 428.75 193.621094 C 428.59375 193.683594 428.457031 193.777344 428.339844 193.894531 C 428.222656 194.011719 428.128906 194.148438 428.066406 194.300781 C 428.003906 194.457031 427.96875 194.617188 427.96875 194.785156 L 427.96875 195.707031 C 427.96875 195.871094 428.003906 196.035156 428.066406 196.1875 C 428.128906 196.339844 428.222656 196.476562 428.339844 196.59375 C 428.457031 196.714844 428.59375 196.804688 428.75 196.867188 C 428.902344 196.933594 429.0625 196.964844 429.230469 196.964844 L 447.296875 196.964844 C 447.53125 196.964844 447.726562 197.046875 447.890625 197.210938 C 448.054688 197.375 448.136719 197.570312 448.136719 197.804688 C 448.136719 198.035156 448.054688 198.230469 447.890625 198.394531 C 447.726562 198.558594 447.53125 198.640625 447.296875 198.640625 L 429.230469 198.640625 C 428.832031 198.640625 428.453125 198.566406 428.085938 198.410156 C 427.71875 198.257812 427.398438 198.035156 427.121094 197.753906 C 426.84375 197.46875 426.632812 197.140625 426.488281 196.769531 C 426.34375 196.402344 426.277344 196.019531 426.289062 195.621094 L 426.289062 194.785156 C 426.289062 194.394531 426.363281 194.019531 426.511719 193.660156 C 426.664062 193.300781 426.875 192.984375 427.152344 192.707031 C 427.425781 192.433594 427.746094 192.222656 428.105469 192.070312 C 428.464844 191.921875 428.839844 191.847656 429.230469 191.847656 L 468.976562 191.847656 C 469.367188 191.847656 469.742188 191.921875 470.101562 192.070312 C 470.464844 192.222656 470.78125 192.433594 471.058594 192.707031 C 471.332031 192.984375 471.546875 193.300781 471.695312 193.660156 C 471.84375 194.019531 471.917969 194.394531 471.917969 194.785156 L 471.917969 195.707031 C 471.90625 196.089844 471.824219 196.453125 471.671875 196.804688 C 471.515625 197.152344 471.304688 197.460938 471.027344 197.726562 C 470.753906 197.992188 470.4375 198.199219 470.085938 198.34375 C 469.730469 198.484375 469.359375 198.558594 468.976562 198.558594 Z M 468.976562 198.558594 "/></g><g clip-rule="nonzero" clip-path="url(#clip8)"><path style=" stroke:none;fill-rule:nonzero;fill:rgb(0%,66.668701%,65.879822%);fill-opacity:1;" d="M 472.171875 179.183594 L 463.9375 179.183594 C 463.703125 179.183594 463.503906 179.101562 463.339844 178.9375 C 463.175781 178.777344 463.09375 178.578125 463.09375 178.347656 L 463.09375 166.101562 C 463.09375 165.871094 463.175781 165.671875 463.339844 165.507812 C 463.503906 165.34375 463.703125 165.261719 463.9375 165.261719 L 472.171875 165.261719 C 472.550781 165.261719 472.914062 165.335938 473.265625 165.480469 C 473.613281 165.625 473.921875 165.832031 474.191406 166.097656 C 474.460938 166.367188 474.664062 166.675781 474.808594 167.023438 C 474.957031 167.371094 475.027344 167.738281 475.027344 168.113281 L 475.027344 176.417969 C 475.015625 176.789062 474.9375 177.144531 474.785156 177.484375 C 474.636719 177.824219 474.429688 178.121094 474.160156 178.378906 C 473.894531 178.636719 473.589844 178.835938 473.246094 178.976562 C 472.902344 179.117188 472.542969 179.183594 472.171875 179.183594 Z M 464.777344 177.507812 L 472.171875 177.507812 C 472.328125 177.507812 472.476562 177.476562 472.621094 177.417969 C 472.765625 177.359375 472.890625 177.273438 473.003906 177.164062 C 473.113281 177.054688 473.199219 176.925781 473.257812 176.78125 C 473.316406 176.640625 473.347656 176.488281 473.347656 176.332031 L 473.347656 168.113281 C 473.347656 167.960938 473.316406 167.808594 473.257812 167.664062 C 473.199219 167.523438 473.113281 167.394531 473.003906 167.285156 C 472.890625 167.175781 472.765625 167.089844 472.621094 167.03125 C 472.476562 166.96875 472.328125 166.941406 472.171875 166.941406 L 464.777344 166.941406 Z M 464.777344 177.507812 "/></g><path style=" stroke:none;fill-rule:nonzero;fill:rgb(0%,66.668701%,65.879822%);fill-opacity:1;" d="M 471.078125 176.164062 L 463.9375 176.164062 C 463.703125 176.164062 463.503906 176.082031 463.339844 175.921875 C 463.175781 175.757812 463.09375 175.558594 463.09375 175.328125 L 463.09375 169.203125 C 463.09375 168.972656 463.175781 168.777344 463.339844 168.613281 C 463.503906 168.449219 463.703125 168.367188 463.9375 168.367188 L 471.078125 168.367188 C 471.3125 168.367188 471.507812 168.449219 471.671875 168.613281 C 471.835938 168.777344 471.917969 168.972656 471.917969 169.203125 L 471.917969 175.328125 C 471.917969 175.558594 471.835938 175.757812 471.671875 175.921875 C 471.507812 176.082031 471.3125 176.164062 471.078125 176.164062 Z M 464.777344 174.488281 L 470.238281 174.488281 L 470.238281 170.042969 L 464.777344 170.042969 Z M 464.777344 174.488281 "/><g clip-rule="nonzero" clip-path="url(#clip9)"><path style=" stroke:none;fill-rule:nonzero;fill:rgb(0%,66.668701%,65.879822%);fill-opacity:1;" d="M 440.238281 171.46875 C 440.007812 171.46875 439.808594 171.386719 439.644531 171.222656 C 439.480469 171.058594 439.398438 170.863281 439.398438 170.628906 L 439.398438 156.960938 C 439.398438 156.730469 439.480469 156.53125 439.644531 156.367188 C 439.808594 156.203125 440.007812 156.121094 440.238281 156.121094 C 440.472656 156.121094 440.667969 156.203125 440.832031 156.367188 C 440.996094 156.53125 441.078125 156.730469 441.078125 156.960938 L 441.078125 170.628906 C 441.078125 170.863281 440.996094 171.058594 440.832031 171.222656 C 440.667969 171.386719 440.472656 171.46875 440.238281 171.46875 Z M 440.238281 171.46875 "/></g><path style=" stroke:none;fill-rule:nonzero;fill:rgb(0%,66.668701%,65.879822%);fill-opacity:1;" d="M 442.003906 175.074219 L 438.808594 175.074219 C 438.578125 175.074219 438.378906 174.992188 438.214844 174.828125 C 438.050781 174.667969 437.96875 174.46875 437.96875 174.238281 L 437.96875 170.628906 C 437.96875 170.398438 438.050781 170.203125 438.214844 170.039062 C 438.378906 169.875 438.578125 169.792969 438.808594 169.792969 L 442.003906 169.792969 C 442.234375 169.792969 442.433594 169.875 442.597656 170.039062 C 442.761719 170.203125 442.84375 170.398438 442.84375 170.628906 L 442.84375 174.238281 C 442.84375 174.46875 442.761719 174.667969 442.597656 174.828125 C 442.433594 174.992188 442.234375 175.074219 442.003906 175.074219 Z M 439.652344 173.398438 L 441.164062 173.398438 L 441.164062 171.46875 L 439.652344 171.46875 Z M 439.652344 173.398438 "/><g clip-rule="nonzero" clip-path="url(#clip10)"><g clip-rule="nonzero" clip-path="url(#clip11)"><g clip-rule="nonzero" clip-path="url(#clip12)"><path style=" stroke:none;fill-rule:nonzero;fill:rgb(0%,66.668701%,65.879822%);fill-opacity:1;" d="M 370.105469 57.84375 C 371.078125 55.078125 374.105469 53.621094 376.863281 54.59375 C 379.628906 55.5625 381.078125 58.59375 380.105469 61.359375 C 379.132812 64.125 376.105469 65.578125 373.34375 64.609375 C 370.582031 63.636719 369.132812 60.609375 370.105469 57.84375 Z M 368.976562 70.785156 L 372.882812 72.15625 L 374.53125 69.324219 C 375.273438 69.367188 376.007812 69.328125 376.722656 69.203125 L 378.664062 71.835938 L 382.398438 70.042969 L 381.566406 66.875 C 382.109375 66.390625 382.601562 65.84375 383.03125 65.238281 L 386.265625 65.722656 L 387.640625 61.808594 L 384.816406 60.160156 C 384.859375 59.421875 384.816406 58.6875 384.695312 57.96875 L 387.328125 56.023438 L 385.539062 52.285156 L 382.375 53.121094 C 381.894531 52.578125 381.347656 52.085938 380.742188 51.660156 L 381.230469 48.417969 L 377.324219 47.042969 L 375.675781 49.875 C 374.9375 49.832031 374.203125 49.875 373.488281 49.996094 L 371.542969 47.363281 L 367.808594 49.160156 L 368.644531 52.324219 C 368.101562 52.808594 367.609375 53.359375 367.179688 53.960938 L 363.941406 53.476562 L 362.566406 57.390625 L 365.394531 59.039062 C 365.351562 59.777344 365.390625 60.515625 365.511719 61.230469 L 362.882812 63.179688 L 364.667969 66.917969 L 367.835938 66.078125 C 368.316406 66.621094 368.863281 67.113281 369.464844 67.542969 L 368.976562 70.785156 "/></g></g></g><g clip-rule="nonzero" clip-path="url(#clip13)"><g clip-rule="nonzero" clip-path="url(#clip14)"><g clip-rule="nonzero" clip-path="url(#clip15)"><g clip-rule="nonzero" clip-path="url(#clip16)"><g clip-rule="nonzero" clip-path="url(#clip17)"><path style=" stroke:none;fill-rule:nonzero;fill:rgb(0%,66.668701%,65.879822%);fill-opacity:1;" d="M 377.367188 84.316406 C 376.328125 86.257812 373.917969 86.992188 371.980469 85.957031 C 370.042969 84.921875 369.3125 82.507812 370.347656 80.566406 C 371.386719 78.625 373.796875 77.890625 375.734375 78.925781 C 377.671875 79.960938 378.402344 82.375 377.367188 84.316406 Z M 381.160156 82.324219 L 383.335938 81.179688 L 382.429688 78.203125 L 379.988281 78.460938 C 379.695312 78.003906 379.34375 77.578125 378.945312 77.191406 L 379.675781 74.839844 L 376.933594 73.375 L 375.386719 75.289062 C 374.847656 75.171875 374.296875 75.121094 373.75 75.128906 L 372.609375 72.953125 L 369.632812 73.859375 L 369.890625 76.304688 C 369.433594 76.601562 369.007812 76.953125 368.617188 77.351562 L 366.273438 76.625 L 364.808594 79.371094 L 366.71875 80.914062 C 366.601562 81.460938 366.546875 82.007812 366.554688 82.554688 L 364.378906 83.699219 L 365.285156 86.679688 L 367.726562 86.417969 C 368.019531 86.878906 368.371094 87.304688 368.769531 87.691406 L 368.039062 90.042969 L 370.78125 91.507812 L 372.328125 89.59375 C 372.871094 89.710938 373.417969 89.761719 373.964844 89.753906 L 375.105469 91.929688 L 378.082031 91.023438 L 377.824219 88.578125 C 378.28125 88.28125 378.707031 87.929688 379.09375 87.53125 L 381.441406 88.257812 L 382.90625 85.511719 L 380.996094 83.964844 C 381.113281 83.421875 381.167969 82.871094 381.160156 82.324219 "/></g></g></g></g></g><g clip-rule="nonzero" clip-path="url(#clip18)"><g clip-rule="nonzero" clip-path="url(#clip19)"><g clip-rule="nonzero" clip-path="url(#clip20)"><g clip-rule="nonzero" clip-path="url(#clip21)"><g clip-rule="nonzero" clip-path="url(#clip22)"><path style=" stroke:none;fill-rule:nonzero;fill:rgb(0%,66.668701%,65.879822%);fill-opacity:1;" d="M 395.65625 76.382812 C 394.339844 78.285156 391.730469 78.757812 389.835938 77.441406 C 387.9375 76.121094 387.464844 73.511719 388.785156 71.609375 C 390.101562 69.707031 392.710938 69.234375 394.605469 70.550781 C 396.503906 71.871094 396.976562 74.480469 395.65625 76.382812 Z M 399.492188 76.460938 C 399.679688 75.90625 399.800781 75.335938 399.859375 74.765625 L 402.269531 73.835938 L 401.6875 70.613281 L 399.105469 70.589844 C 398.855469 70.074219 398.539062 69.585938 398.171875 69.132812 L 399.21875 66.765625 L 396.535156 64.902344 L 394.691406 66.714844 C 394.136719 66.523438 393.570312 66.402344 393 66.347656 L 392.070312 63.933594 L 388.855469 64.519531 L 388.824219 67.101562 C 388.3125 67.359375 387.820312 67.671875 387.371094 68.042969 L 385.007812 66.996094 L 383.144531 69.683594 L 384.949219 71.53125 C 384.761719 72.085938 384.640625 72.65625 384.582031 73.226562 L 382.171875 74.15625 L 382.753906 77.378906 L 385.335938 77.402344 C 385.585938 77.917969 385.898438 78.40625 386.269531 78.859375 L 385.222656 81.226562 L 387.90625 83.089844 L 389.753906 81.277344 C 390.304688 81.464844 390.875 81.589844 391.445312 81.644531 L 392.371094 84.058594 L 395.589844 83.476562 L 395.617188 80.886719 C 396.128906 80.632812 396.617188 80.320312 397.070312 79.949219 L 399.433594 80.996094 L 401.296875 78.304688 L 399.492188 76.460938 "/></g></g></g></g></g><g clip-rule="nonzero" clip-path="url(#clip23)"><path style=" stroke:none;fill-rule:nonzero;fill:rgb(0%,66.668701%,65.879822%);fill-opacity:1;" d="M 113.78125 128.5 C 113.382812 128.503906 113.0625 128.832031 113.066406 129.234375 L 113.066406 137.164062 C 113.046875 137.578125 113.375 137.925781 113.792969 137.925781 C 114.207031 137.925781 114.539062 137.578125 114.519531 137.164062 L 114.519531 129.234375 C 114.523438 128.824219 114.1875 128.492188 113.78125 128.5 Z M 127.996094 132.296875 C 127.734375 132.292969 127.492188 132.433594 127.359375 132.664062 L 123.382812 139.53125 C 123.183594 139.878906 123.304688 140.324219 123.652344 140.523438 C 123.996094 140.726562 124.441406 140.609375 124.640625 140.261719 L 128.617188 133.390625 C 128.90625 132.910156 128.5625 132.300781 128 132.296875 Z M 99.457031 132.296875 C 98.910156 132.316406 98.578125 132.917969 98.863281 133.390625 L 102.835938 140.257812 C 103.039062 140.605469 103.484375 140.726562 103.832031 140.523438 C 104.175781 140.324219 104.296875 139.878906 104.09375 139.53125 L 100.121094 132.660156 C 99.988281 132.425781 99.734375 132.285156 99.457031 132.292969 Z M 113.792969 141.480469 C 107.53125 141.480469 102.507812 146.5 102.507812 152.769531 L 102.507812 157.335938 L 125.082031 157.335938 L 125.082031 152.769531 C 125.082031 146.5 120.058594 141.480469 113.792969 141.480469 Z M 89.121094 142.667969 C 88.355469 142.640625 88.070312 143.65625 88.738281 144.027344 L 95.621094 147.992188 C 95.972656 148.207031 96.433594 148.09375 96.636719 147.738281 C 96.84375 147.382812 96.710938 146.925781 96.347656 146.734375 L 89.464844 142.769531 C 89.359375 142.710938 89.242188 142.675781 89.121094 142.675781 Z M 138.414062 142.667969 C 138.273438 142.664062 138.132812 142.695312 138.015625 142.765625 L 131.132812 146.730469 C 130.769531 146.921875 130.636719 147.378906 130.84375 147.734375 C 131.050781 148.089844 131.507812 148.199219 131.855469 147.984375 L 138.742188 144.019531 C 139.382812 143.664062 139.148438 142.6875 138.414062 142.664062 Z M 114.003906 143.144531 C 114.34375 143.144531 114.671875 143.164062 115 143.195312 C 115.332031 143.222656 115.652344 143.269531 115.96875 143.34375 C 116.285156 143.417969 116.601562 143.488281 116.90625 143.585938 C 117.210938 143.683594 117.507812 143.78125 117.804688 143.910156 C 118.09375 144.035156 118.378906 144.167969 118.65625 144.316406 C 118.929688 144.460938 119.195312 144.628906 119.457031 144.800781 C 119.714844 144.972656 119.964844 145.15625 120.207031 145.355469 C 120.449219 145.550781 120.679688 145.761719 120.898438 145.980469 C 121.1875 146.261719 121.1875 146.726562 120.902344 147.007812 C 120.617188 147.292969 120.15625 147.292969 119.871094 147.011719 C 119.675781 146.816406 119.488281 146.644531 119.28125 146.480469 C 119.089844 146.308594 118.867188 146.15625 118.644531 146.007812 C 118.425781 145.859375 118.199219 145.722656 117.960938 145.59375 C 117.71875 145.472656 117.484375 145.351562 117.238281 145.25 C 116.992188 145.148438 116.734375 145.054688 116.476562 144.972656 C 116.214844 144.898438 115.949219 144.824219 115.683594 144.78125 C 115.40625 144.730469 115.136719 144.683594 114.855469 144.65625 C 114.574219 144.632812 114.292969 144.609375 114.003906 144.609375 C 113.605469 144.609375 113.277344 144.285156 113.277344 143.882812 C 113.277344 143.480469 113.605469 143.15625 114.003906 143.15625 Z M 121.914062 147.816406 C 122.1875 147.816406 122.441406 147.960938 122.566406 148.203125 C 122.714844 148.480469 122.855469 148.761719 122.976562 149.050781 C 123.136719 149.421875 122.960938 149.847656 122.589844 150 C 122.222656 150.160156 121.792969 149.984375 121.640625 149.613281 C 121.542969 149.371094 121.417969 149.132812 121.289062 148.894531 C 121.023438 148.417969 121.363281 147.828125 121.914062 147.816406 Z M 122.953125 151.171875 C 123.339844 151.167969 123.660156 151.457031 123.691406 151.835938 C 123.71875 152.160156 123.742188 152.492188 123.742188 152.824219 C 123.742188 153.226562 123.414062 153.550781 123.011719 153.550781 C 122.613281 153.550781 122.285156 153.226562 122.285156 152.824219 C 122.285156 152.539062 122.273438 152.257812 122.238281 151.980469 C 122.1875 151.550781 122.519531 151.179688 122.949219 151.175781 Z M 102.507812 158.789062 L 102.507812 168.195312 C 102.507812 174.464844 107.53125 179.484375 113.796875 179.484375 C 120.058594 179.484375 125.082031 174.464844 125.082031 168.195312 L 125.082031 158.789062 Z M 99.078125 164.140625 C 98.003906 164.15625 97.15625 165.03125 97.167969 166.109375 C 97.171875 166.113281 97.171875 166.117188 97.171875 166.121094 L 97.171875 168.171875 C 97.171875 176.535156 103.351562 183.472656 111.371094 184.648438 C 111.726562 184.703125 111.996094 185.007812 111.996094 185.367188 L 111.996094 194.175781 C 111.996094 194.273438 112 194.371094 112.015625 194.480469 C 112.089844 194.921875 111.75 195.324219 111.300781 195.328125 L 106.839844 195.328125 C 105.832031 195.328125 105.039062 196.113281 105.039062 197.128906 C 105.039062 198.140625 105.832031 198.933594 106.839844 198.933594 L 120.753906 198.933594 C 121.757812 198.933594 122.554688 198.140625 122.554688 197.128906 C 122.554688 196.117188 121.761719 195.328125 120.753906 195.328125 L 116.289062 195.328125 C 115.839844 195.324219 115.5 194.921875 115.574219 194.480469 C 115.589844 194.382812 115.597656 194.289062 115.597656 194.175781 L 115.597656 185.367188 C 115.597656 185.007812 115.863281 184.703125 116.21875 184.648438 C 124.238281 183.472656 130.421875 176.535156 130.421875 168.171875 L 130.421875 166.121094 C 130.421875 166.117188 130.421875 166.117188 130.421875 166.113281 C 130.433594 165.027344 129.570312 164.152344 128.480469 164.152344 C 127.394531 164.152344 126.53125 165.027344 126.542969 166.113281 C 126.542969 166.117188 126.542969 166.117188 126.542969 166.121094 L 126.542969 168.171875 C 126.542969 175.273438 120.882812 180.941406 113.792969 180.941406 C 106.707031 180.941406 101.050781 175.273438 101.050781 168.171875 L 101.050781 166.121094 C 101.050781 166.117188 101.050781 166.113281 101.050781 166.109375 C 101.0625 165.007812 100.179688 164.125 99.078125 164.140625 Z M 99.078125 164.140625 "/></g><g clip-rule="nonzero" clip-path="url(#clip24)"><g clip-rule="nonzero" clip-path="url(#clip25)"><g clip-rule="nonzero" clip-path="url(#clip26)"><path style=" stroke:none;fill-rule:nonzero;fill:rgb(0%,66.668701%,65.879822%);fill-opacity:1;" d="M 113.226562 75.351562 C 113.679688 75.316406 114.132812 75.328125 114.582031 75.386719 C 115.035156 75.441406 115.472656 75.539062 115.90625 75.683594 C 116.335938 75.824219 116.75 76.007812 117.144531 76.234375 C 117.542969 76.457031 117.910156 76.71875 118.253906 77.015625 C 118.597656 77.3125 118.910156 77.640625 119.191406 77.996094 C 119.46875 78.355469 119.710938 78.738281 119.917969 79.144531 C 120.121094 79.550781 120.285156 79.972656 120.40625 80.410156 C 120.527344 80.847656 120.601562 81.292969 120.636719 81.746094 C 120.667969 82.199219 120.660156 82.652344 120.601562 83.101562 C 120.546875 83.554688 120.449219 83.996094 120.304688 84.425781 C 120.164062 84.859375 119.980469 85.273438 119.753906 85.667969 C 119.53125 86.0625 119.269531 86.433594 118.972656 86.777344 C 118.675781 87.121094 118.347656 87.433594 117.988281 87.710938 C 117.632812 87.992188 117.25 88.234375 116.84375 88.4375 C 116.4375 88.640625 116.015625 88.804688 115.578125 88.925781 C 115.140625 89.046875 114.695312 89.125 114.242188 89.15625 C 113.789062 89.191406 113.335938 89.179688 112.882812 89.125 C 112.433594 89.066406 111.992188 88.96875 111.558594 88.824219 C 111.128906 88.683594 110.714844 88.5 110.320312 88.277344 C 109.925781 88.050781 109.554688 87.789062 109.210938 87.492188 C 108.867188 87.195312 108.554688 86.871094 108.277344 86.511719 C 107.996094 86.152344 107.753906 85.769531 107.550781 85.363281 C 107.347656 84.957031 107.183594 84.535156 107.0625 84.097656 C 106.941406 83.660156 106.863281 83.214844 106.832031 82.761719 C 106.796875 82.308594 106.808594 81.855469 106.863281 81.40625 C 106.917969 80.953125 107.019531 80.511719 107.160156 80.082031 C 107.304688 79.648438 107.488281 79.238281 107.710938 78.839844 C 107.9375 78.445312 108.195312 78.074219 108.492188 77.730469 C 108.789062 77.386719 109.117188 77.074219 109.476562 76.796875 C 109.835938 76.515625 110.21875 76.273438 110.621094 76.070312 C 111.027344 75.867188 111.449219 75.703125 111.890625 75.582031 C 112.328125 75.460938 112.773438 75.382812 113.226562 75.351562 Z M 113.226562 75.351562 "/></g></g></g><g clip-rule="nonzero" clip-path="url(#clip27)"><g clip-rule="nonzero" clip-path="url(#clip28)"><g clip-rule="nonzero" clip-path="url(#clip29)"><path style=" stroke:none;fill-rule:nonzero;fill:rgb(0%,66.668701%,65.879822%);fill-opacity:1;" d="M 118.859375 57.585938 L 119.367188 64.488281 C 106.042969 65.46875 96.003906 77.101562 96.984375 90.425781 L 90.082031 90.933594 C 88.820312 73.804688 101.730469 58.847656 118.859375 57.585938 Z M 118.859375 57.585938 "/></g></g></g><g clip-rule="nonzero" clip-path="url(#clip30)"><g clip-rule="nonzero" clip-path="url(#clip31)"><g clip-rule="nonzero" clip-path="url(#clip32)"><path style=" stroke:none;fill-rule:nonzero;fill:rgb(0%,66.668701%,65.879822%);fill-opacity:1;" d="M 117.84375 43.78125 L 118.351562 50.683594 C 97.417969 52.222656 81.640625 70.503906 83.179688 91.441406 L 76.273438 91.949219 C 74.457031 67.207031 93.105469 45.601562 117.84375 43.78125 Z M 117.84375 43.78125 "/></g></g></g></g></svg>