<svg xmlns="http://www.w3.org/2000/svg" width="650" height="265" version="1.2" viewBox="0 0 487.5 198.75"><defs><clipPath id="a"><path d="M12.492 141.863h69.735V198.5H12.492Zm0 0"/></clipPath><clipPath id="b"><path d="M152.309 58.344h182.96V173H152.31Zm0 0"/></clipPath><clipPath id="c"><path d="M202 188h84v10.5h-84Zm0 0"/></clipPath><clipPath id="d"><path d="M347.207 119.223h66.734V198.5h-66.734Zm0 0"/></clipPath><clipPath id="e"><path d="M430 156.012h37V163h-37Zm0 0"/></clipPath><clipPath id="f"><path d="M448 196h6v2.5h-6Zm0 0"/></clipPath><clipPath id="g"><path d="M426.29 191H472v7.5h-45.71Zm0 0"/></clipPath><clipPath id="h"><path d="M463 165h12.027v15H463Zm0 0"/></clipPath><clipPath id="i"><path d="M439 156.012h3V172h-3Zm0 0"/></clipPath><clipPath id="j"><path d="M362 47h26v26h-26Zm0 0"/></clipPath><clipPath id="k"><path d="m367.45 43.508 41.027 14.422-14.672 41.738-41.028-14.426Zm0 0"/></clipPath><clipPath id="l"><path d="m367.45 43.508 41.027 14.422-14.672 41.738-41.028-14.426Zm0 0"/></clipPath><clipPath id="m"><path d="M364 72h20v20h-20Zm0 0"/></clipPath><clipPath id="n"><path d="m367.45 43.508 41.027 14.422-14.672 41.738-41.028-14.426Zm0 0"/></clipPath><clipPath id="o"><path d="m367.45 43.508 41.027 14.422-14.672 41.738-41.028-14.426Zm0 0"/></clipPath><clipPath id="p"><path d="m367.96 69.953 18.427 6.48-6.489 18.462-18.43-6.48Zm0 0"/></clipPath><clipPath id="q"><path d="m367.96 69.953 18.427 6.48-6.434 18.297-18.426-6.476Zm0 0"/></clipPath><clipPath id="r"><path d="M382 63h21v22h-21Zm0 0"/></clipPath><clipPath id="s"><path d="m367.45 43.508 41.027 14.422-14.672 41.738-41.028-14.426Zm0 0"/></clipPath><clipPath id="t"><path d="m367.45 43.508 41.027 14.422-14.672 41.738-41.028-14.426Zm0 0"/></clipPath><clipPath id="u"><path d="m385.996 61.012 19.078 6.703-6.719 19.11-19.074-6.704Zm0 0"/></clipPath><clipPath id="v"><path d="m385.996 61.012 19.027 6.687-6.714 19.11-19.028-6.688Zm0 0"/></clipPath><clipPath id="w"><path d="M88 128.523h51.61V198.5H88Zm0 0"/></clipPath><clipPath id="x"><path d="M106 75h15v15h-15Zm0 0"/></clipPath><clipPath id="y"><path d="m76.273 91.95-3.296-44.872 44.867-3.297 3.3 44.867Zm0 0"/></clipPath><clipPath id="z"><path d="m76.273 91.95-3.296-44.872 44.867-3.297 3.3 44.867Zm0 0"/></clipPath><clipPath id="A"><path d="M89 57h31v34H89Zm0 0"/></clipPath><clipPath id="B"><path d="m76.273 91.95-3.296-44.872 44.867-3.297 3.3 44.867Zm0 0"/></clipPath><clipPath id="C"><path d="m76.273 91.95-3.296-44.872 44.867-3.297 3.3 44.867Zm0 0"/></clipPath><clipPath id="D"><path d="M76 43h43v49H76Zm0 0"/></clipPath><clipPath id="E"><path d="m76.273 91.95-3.296-44.872 44.867-3.297 3.3 44.867Zm0 0"/></clipPath><clipPath id="F"><path d="m76.273 91.95-3.296-44.872 44.867-3.297 3.3 44.867Zm0 0"/></clipPath></defs><g clip-path="url(#a)"><path d="M73.508 198.848H21.207c-.57 0-1.137-.055-1.7-.168a8.594 8.594 0 0 1-1.636-.496 8.85 8.85 0 0 1-2.828-1.902 8.64 8.64 0 0 1-1.082-1.329 8.938 8.938 0 0 1-.805-1.516 8.584 8.584 0 0 1-.496-1.644 8.672 8.672 0 0 1-.168-1.711v-30.684c0-.574.055-1.144.168-1.707.11-.566.277-1.113.496-1.644a8.862 8.862 0 0 1 1.887-2.848 8.85 8.85 0 0 1 1.324-1.09 8.705 8.705 0 0 1 3.14-1.308 8.887 8.887 0 0 1 1.7-.168h10.242l.656-4.567a4.321 4.321 0 0 1 .356-1.636 4.322 4.322 0 0 1 2.36-2.274 4.243 4.243 0 0 1 1.64-.29l21.793.001a4.154 4.154 0 0 1 1.645.293c.257.102.507.227.746.38a4.435 4.435 0 0 1 1.203 1.163c.16.23.297.477.41.734a4.321 4.321 0 0 1 .355 1.637l.653 4.559h10.242c.574 0 1.14.058 1.703.168a8.74 8.74 0 0 1 3.14 1.309c.477.32.919.683 1.32 1.09.407.41.766.85 1.087 1.331a8.871 8.871 0 0 1 1.469 4.867v30.684a8.871 8.871 0 0 1-1.469 4.871c-.32.48-.68.922-1.086 1.328a8.759 8.759 0 0 1-2.828 1.902 8.556 8.556 0 0 1-1.633.497 8.594 8.594 0 0 1-1.703.168Zm-52.301-43.832c-.285 0-.566.027-.848.086a4.056 4.056 0 0 0-.82.25c-.262.109-.516.242-.75.402-.238.16-.46.344-.664.547a4.403 4.403 0 0 0-.941 1.422 4.321 4.321 0 0 0-.332 1.675v30.684a4.359 4.359 0 0 0 .332 1.68 4.405 4.405 0 0 0 .941 1.422c.203.203.426.382.664.543a4.216 4.216 0 0 0 1.57.656c.282.054.563.082.848.082h52.3c.29 0 .571-.028.852-.082.282-.059.555-.14.817-.25a4.397 4.397 0 0 0 1.957-1.613 4.405 4.405 0 0 0 .734-2.438v-30.684c0-.285-.027-.57-.082-.855a4.624 4.624 0 0 0-.25-.82 4.265 4.265 0 0 0-.402-.758 4.428 4.428 0 0 0-1.203-1.211 4.231 4.231 0 0 0-.754-.402 3.947 3.947 0 0 0-.817-.25 4.144 4.144 0 0 0-.851-.086h-12.14c-.263 0-.516-.047-.763-.137a2.211 2.211 0 0 1-.664-.399c-.199-.171-.359-.375-.484-.605a2.14 2.14 0 0 1-.246-.738l-.934-6.575a2.104 2.104 0 0 1-.023-.312H36.46a1.68 1.68 0 0 1-.02.313l-.933 6.574a2.226 2.226 0 0 1-.73 1.343 2.23 2.23 0 0 1-.669.399c-.246.09-.5.137-.761.137Zm0 0" style="stroke:none;fill-rule:nonzero;fill:#00aaa8;fill-opacity:1"/></g><path d="M51.719 155.016H34.285c-.289 0-.57-.055-.836-.164a2.172 2.172 0 0 1-.707-.477 2.24 2.24 0 0 1-.472-.71 2.203 2.203 0 0 1-.165-.84c0-.29.055-.571.165-.837a2.16 2.16 0 0 1 1.18-1.188c.265-.112.546-.167.835-.167H51.72c.289 0 .566.054.832.168a2.16 2.16 0 0 1 1.18 1.187c.109.266.164.547.164.836a2.177 2.177 0 0 1-.637 1.55 2.164 2.164 0 0 1-1.54.64ZM56.074 190.082H25.566c-.285 0-.57-.027-.851-.082a4.684 4.684 0 0 1-.817-.25 4.397 4.397 0 0 1-1.414-.95 4.46 4.46 0 0 1-.945-1.425 4.475 4.475 0 0 1-.332-1.676v-21.918c0-.285.031-.57.086-.851.055-.285.137-.559.246-.825.11-.265.246-.52.402-.757a4.428 4.428 0 0 1 1.204-1.211 4.499 4.499 0 0 1 1.57-.653c.281-.054.566-.086.851-.086h30.508c.29 0 .57.032.852.086a4.499 4.499 0 0 1 1.57.652 4.423 4.423 0 0 1 1.606 1.97c.109.265.191.539.25.824.054.28.082.566.082.851V185.7c0 .29-.028.574-.082.856-.059.28-.141.554-.25.82a4.46 4.46 0 0 1-.945 1.426A4.397 4.397 0 0 1 56.925 190a4.431 4.431 0 0 1-.852.082Zm-30.508-26.3v21.917h30.508v-21.918ZM71.328 165.977h-4.355c-.29 0-.567-.059-.836-.168a2.198 2.198 0 0 1 0-4.05c.27-.11.547-.17.836-.17h4.355a2.188 2.188 0 0 1 1.543.645 2.198 2.198 0 0 1 .637 1.547c0 .293-.055.57-.164.84-.11.27-.27.508-.473.711a2.172 2.172 0 0 1-1.543.645ZM71.328 174.742h-4.355a2.13 2.13 0 0 1-.836-.168 2.198 2.198 0 0 1 0-4.05c.27-.11.547-.165.836-.165h4.355c.29 0 .57.055.836.164.266.114.504.27.707.477a2.177 2.177 0 0 1 .637 1.55 2.184 2.184 0 0 1-.637 1.548 2.112 2.112 0 0 1-.707.476 2.117 2.117 0 0 1-.836.168ZM71.328 181.316c0 .29-.055.57-.164.84a2.16 2.16 0 0 1-1.18 1.184 2.098 2.098 0 0 1-.832.168c-.289 0-.57-.055-.836-.168a2.16 2.16 0 0 1-1.18-1.184 2.218 2.218 0 0 1 .473-2.39 2.16 2.16 0 0 1 .707-.473c.266-.113.547-.168.836-.168.29 0 .567.055.832.168a2.16 2.16 0 0 1 1.18 1.184c.11.27.164.55.164.84ZM265.29 164.05h-43.056v29.65h43.055v-29.65" style="stroke:none;fill-rule:nonzero;fill:#00aaa8;fill-opacity:1"/><g clip-path="url(#b)"><path d="M330.754 161.012c0 .988-.805 1.793-1.793 1.793H158.562a1.8 1.8 0 0 1-1.8-1.793V64.516c0-.993.808-1.793 1.8-1.793h170.399c.988 0 1.793.8 1.793 1.793ZM328.96 58.355H158.562a6.162 6.162 0 0 0-6.167 6.16v101.63a6.164 6.164 0 0 0 6.167 6.16h170.399a6.163 6.163 0 0 0 6.164-6.16V64.515a6.16 6.16 0 0 0-6.164-6.16" style="stroke:none;fill-rule:nonzero;fill:#00aaa8;fill-opacity:1"/></g><g clip-path="url(#c)"><path d="M285.336 198.55v-6.765c0-1.547-1.254-2.8-2.805-2.8h-77.539a2.805 2.805 0 0 0-2.808 2.8v6.766h83.152" style="stroke:none;fill-rule:nonzero;fill:#00aaa8;fill-opacity:1"/></g><path d="M179.61 137.703c-.34.332-1.383.086-1.825.035a10.038 10.038 0 0 1-1.851-.402c-1.02-.336-1.961-.887-2.704-1.668-1.84-1.934-2.039-4.637-2.085-7.172-.067-3.156.23-6.394-.301-9.52-.352-2.085-1.102-4.203-2.656-5.699a6.839 6.839 0 0 0-.504-.445c-.137-.105-.09-.242-.09-.414 0-.324.601-.676.828-.922.687-.742 1.207-1.621 1.594-2.547 1.379-3.324 1.12-7.027 1.12-10.55 0-2.204-.09-4.493.512-6.633.618-2.204 2.274-3.809 4.47-4.426.57-.16 1.155-.262 1.745-.324.469-.051 1.535-.286 1.918.054.328.29.14 1.34.14 1.703v1.829c0 .648-.6.558-1.077.585-.617.036-1.25.141-1.824.391-1.676.727-2.008 2.649-2.122 4.285-.136 2.125.133 4.25.239 6.371.183 3.594-.075 7.86-2.989 10.403 2.043 1.867 2.762 4.773 2.93 7.433.156 2.461-.21 4.899-.21 7.352 0 1.39.05 2.8.566 4.113.488 1.242 1.68 1.758 2.941 1.89.434.044 1.367-.16 1.52.407.058.215.027.48.027.703v2.29c0 .46-.008.515-.313.878M305.64 87.059c.34-.329 1.383-.086 1.82-.032a9.354 9.354 0 0 1 1.856.403c1.02.336 1.961.886 2.704 1.664 1.84 1.933 2.039 4.636 2.09 7.172.058 3.16-.231 6.398.296 9.523.356 2.082 1.106 4.203 2.656 5.7.16.152.333.3.504.44.141.11.09.247.09.415 0 .328-.601.68-.832.926-.683.738-1.199 1.62-1.59 2.546-1.379 3.325-1.117 7.028-1.117 10.551 0 2.2.086 4.492-.515 6.63-.618 2.206-2.27 3.808-4.465 4.425-.57.164-1.16.266-1.75.328-.469.047-1.535.285-1.918-.059-.324-.285-.14-1.336-.14-1.703v-1.824c0-.652.6-.559 1.077-.59.621-.035 1.25-.14 1.824-.387 1.676-.726 2.012-2.648 2.118-4.289.14-2.128-.13-4.25-.239-6.367-.183-3.594.082-7.86 2.993-10.41-2.043-1.863-2.758-4.766-2.93-7.426-.152-2.46.215-4.898.215-7.351 0-1.39-.055-2.805-.57-4.114-.485-1.246-1.68-1.761-2.938-1.89-.434-.047-1.375.152-1.52-.406-.058-.22-.03-.48-.03-.707V87.94c0-.464.007-.515.312-.882M200.691 72.773H182.75v4.649h17.941v-4.649M202.32 72.773v4.649h14.106v-4.649H202.32M218.594 72.773v4.649h31.73v-4.649h-31.73M194.852 70.996H182.75v-4.648h12.102v4.648M210.277 80.133h-7.855v4.652h7.855v-4.652M283.828 80.133h-71.02v4.652h71.02v-4.652M286.543 80.133v4.652h18.227v-4.652h-18.227M275.875 87.496h-57.25v4.649h57.25v-4.649M294.68 87.496h-16.637v4.649h16.637v-4.649M206.66 94.86h-4.238v4.652h4.238v-4.653M209.918 94.86v4.652h89.102v-4.653h-89.102M301.371 94.86v4.652h3.399v-4.653h-3.399M192.918 102.223H182.75v4.648h10.168v-4.648M207.746 102.223H195.45v4.648h12.297v-4.648M211.36 102.223v4.648h5.183v-4.648h-5.184M261.766 109.586h-37.204v4.621h-3.253v-4.621h-18.887v4.648h59.344v-4.648M262.488 109.586v4.648h6.223v-4.648h-6.223M215.16 116.95h-3.195v4.648h3.195v-4.649M229.992 116.95h-12.48v4.648h12.48v-4.649M284.371 116.95h-52.57v4.648h52.57v-4.649M287.27 116.95v4.648h12.464v-4.649H287.27M225.29 124.313h-13.325v4.648h13.324v-4.649M273.52 124.313h-45.88v4.648h45.88v-4.649M278.945 124.313v4.648h25.825v-4.649h-25.825M282.742 131.676h-46.965v4.648h46.965v-4.648M232.34 131.676h-20.375v4.648h20.375v-4.648M257.895 143.691h-55.473v-4.652h55.473v4.652M189.48 146.402h-6.73v4.653h6.73v-4.653M192.008 146.402v4.653h83.765v-4.653h-83.765M194.852 158.418H182.75v-4.652h12.102v4.652" style="stroke:none;fill-rule:nonzero;fill:#00aaa8;fill-opacity:1"/><g clip-path="url(#d)"><path d="M398.309 181.672h-48.243v-50.996h48.243v2.738h2.836v-7.094c0-.468-.043-.93-.137-1.386a6.973 6.973 0 0 0-.403-1.332 7.404 7.404 0 0 0-.656-1.227 6.834 6.834 0 0 0-.883-1.074 7.058 7.058 0 0 0-3.632-1.942 7.154 7.154 0 0 0-1.383-.136h-39.727a7.154 7.154 0 0 0-2.715.539 7.058 7.058 0 0 0-2.3 1.54 7.058 7.058 0 0 0-1.942 3.632c-.09.457-.137.918-.137 1.386v65.285a7.164 7.164 0 0 0 .54 2.72 7.058 7.058 0 0 0 1.54 2.3 7.058 7.058 0 0 0 3.631 1.941 6.86 6.86 0 0 0 1.383.137h39.727a6.86 6.86 0 0 0 1.383-.137 6.89 6.89 0 0 0 1.332-.402 7.058 7.058 0 0 0 2.3-1.54c.332-.327.625-.687.883-1.073.258-.387.477-.797.656-1.227.18-.433.313-.875.403-1.332a6.87 6.87 0 0 0 .137-1.387v-14.19h-2.836Zm-19.864-58.192h2.836v2.84h-2.836Zm-9.933 0h7.093v2.84h-7.093Zm5.675 70.965c-.277 0-.554-.027-.828-.082a4.033 4.033 0 0 1-.8-.242 4.027 4.027 0 0 1-.735-.394 3.8 3.8 0 0 1-.644-.528c-.2-.199-.375-.414-.532-.644a4.468 4.468 0 0 1-.394-.739 4.232 4.232 0 0 1-.242-2.46c.054-.274.136-.54.242-.797a4.282 4.282 0 0 1 1.57-1.91c.23-.157.477-.29.735-.395a4.31 4.31 0 0 1 1.628-.324 4.262 4.262 0 0 1 1.63.324 4.446 4.446 0 0 1 1.383.922 4.446 4.446 0 0 1 .921 1.383 4.291 4.291 0 0 1 .242 2.46c-.054.274-.136.54-.242.797-.11.258-.238.504-.394.739a4.63 4.63 0 0 1-.528.644c-.199.2-.414.375-.648.528-.23.156-.477.289-.735.394a4.262 4.262 0 0 1-1.629.324Zm1.418-4.257c0 .187-.035.37-.105.542a1.426 1.426 0 0 1-.77.77 1.445 1.445 0 0 1-1.086 0 1.47 1.47 0 0 1-.46-.309 1.356 1.356 0 0 1-.305-.46 1.363 1.363 0 0 1-.11-.543c0-.188.036-.368.11-.543a1.395 1.395 0 0 1 .766-.77 1.445 1.445 0 0 1 1.085 0 1.426 1.426 0 0 1 .77.77c.07.175.105.355.105.542Zm34.055-53.934h-48.242a4.222 4.222 0 0 0-1.629.324 4.027 4.027 0 0 0-.734.395 4.216 4.216 0 0 0-1.176 1.172c-.156.234-.285.48-.395.738a4.291 4.291 0 0 0-.324 1.629v22.71a4.222 4.222 0 0 0 .324 1.63 4.282 4.282 0 0 0 3.106 2.546c.273.055.55.082.828.082h48.242a4.222 4.222 0 0 0 1.625-.324c.262-.11.504-.238.738-.394a4.395 4.395 0 0 0 1.176-1.176 4.263 4.263 0 0 0 .715-2.363v-22.711a4.291 4.291 0 0 0-.715-2.367 4.395 4.395 0 0 0-.531-.645 4.63 4.63 0 0 0-.645-.527 4.06 4.06 0 0 0-.738-.395 4.222 4.222 0 0 0-1.625-.324Zm1.418 26.969c0 .187-.039.367-.11.543-.07.172-.175.324-.308.46a1.356 1.356 0 0 1-.46.305c-.173.074-.352.11-.54.11h-48.242c-.188 0-.367-.036-.543-.11a1.395 1.395 0 0 1-.766-.765 1.376 1.376 0 0 1-.109-.543v-22.711c0-.188.035-.367.11-.543a1.395 1.395 0 0 1 .765-.77c.176-.07.355-.105.543-.105h48.242a1.41 1.41 0 0 1 1.309.875c.07.176.11.355.11.543Zm-11.351-11.356c0 .54-.23.946-.696 1.219l-14.187 8.516a1.39 1.39 0 0 1-.723.199c-.25 0-.48-.063-.695-.184a1.385 1.385 0 0 1-.531-.52 1.405 1.405 0 0 1-.196-.714v-17.031c0-.258.067-.493.196-.715.125-.219.3-.395.523-.52.223-.125.46-.187.715-.183.254 0 .492.066.71.195l14.188 8.516c.465.277.696.683.696 1.222Zm-34.051 19.871h35.469v2.836h-35.47v1.422h-2.84v-1.422h-5.675v-2.836h5.676v-1.422h2.84Zm11.351-29.808h2.836v12.777h-2.836Zm-5.675 7.097h2.836v12.774h-2.836Zm5.675 8.516h2.836v4.258h-2.836Zm-5.675-15.613h2.836v4.257h-2.836Zm-8.516 0h2.84v2.84h-2.84Zm0 5.68h2.84v2.835h-2.84Zm0 5.675h2.84v2.84h-2.84Zm0 5.68h2.84v2.836h-2.84Zm42.566-17.035h2.836v2.84h-2.836Zm0 5.68h2.836v2.835h-2.836Zm0 5.675h2.836v2.84h-2.836Zm0 5.68h2.836v2.836h-2.836Zm-1.418 12.773h9.93v2.836h-9.93Zm0 0" style="stroke:none;fill-rule:nonzero;fill:#00aaa8;fill-opacity:1"/></g><g clip-path="url(#e)"><path d="M463.938 162.832h-30.59a2.919 2.919 0 0 1-2.078-.86 2.919 2.919 0 0 1-.863-2.078v-.835a2.919 2.919 0 0 1 .863-2.079 2.919 2.919 0 0 1 2.078-.86l30.59.001c.386 0 .761.074 1.125.223.359.152.675.363.953.636.277.278.488.594.636.954.149.359.223.734.223 1.125v.921a2.81 2.81 0 0 1-.246 1.098 2.85 2.85 0 0 1-.645.922c-.273.27-.586.473-.941.617-.356.14-.723.215-1.106.215Zm-30.59-5.031a1.254 1.254 0 0 0-1.164.773 1.292 1.292 0 0 0-.098.485v.921c0 .168.035.329.098.48.062.157.156.29.273.411.117.117.254.207.41.27.153.066.313.097.48.097h30.59c.165 0 .329-.031.481-.097.156-.063.289-.153.41-.27a1.254 1.254 0 0 0 .367-.89v-.922c0-.168-.03-.329-.093-.485a1.306 1.306 0 0 0-.274-.406 1.323 1.323 0 0 0-.41-.273 1.268 1.268 0 0 0-.48-.094Zm0 0" style="stroke:none;fill-rule:nonzero;fill:#00aaa8;fill-opacity:1"/></g><path d="M457.887 188.41h-18.575c-.449 0-.898-.043-1.343-.133a6.846 6.846 0 0 1-3.528-1.882 6.615 6.615 0 0 1-.855-1.04 6.72 6.72 0 0 1-.637-1.19 6.82 6.82 0 0 1-.527-2.634v-12.578c0-.23.082-.43.246-.594a.814.814 0 0 1 .598-.246c.23 0 .43.082.593.246a.811.811 0 0 1 .246.594v12.578c0 .344.032.68.098 1.016.067.336.168.66.297.976.133.317.293.614.48.899.192.285.407.547.649.789.242.238.508.457.789.644a5 5 0 0 0 .902.48 5.237 5.237 0 0 0 1.992.398l18.575.001a5.237 5.237 0 0 0 4.332-2.312c.187-.285.347-.582.48-.899.13-.316.23-.64.297-.976.067-.336.098-.672.098-1.016v-18.699h-28.989v3.606c0 .23-.082.43-.246.593a.811.811 0 0 1-.593.246.814.814 0 0 1-.598-.246.811.811 0 0 1-.246-.594v-4.445c0-.23.082-.43.246-.594a.814.814 0 0 1 .598-.246h30.671c.231 0 .43.082.594.246a.811.811 0 0 1 .246.594v19.54a6.82 6.82 0 0 1-.527 2.633 6.72 6.72 0 0 1-.637 1.19c-.25.375-.535.723-.855 1.04-.32.32-.668.605-1.043.855a6.846 6.846 0 0 1-2.484 1.027c-.446.09-.891.133-1.344.133Zm0 0" style="stroke:none;fill-rule:nonzero;fill:#00aaa8;fill-opacity:1"/><path d="M464.945 193.527h-31.597c-.391 0-.766-.074-1.125-.226-.36-.149-.68-.36-.953-.637a2.91 2.91 0 0 1-.864-2.074v-.922a2.91 2.91 0 0 1 .863-2.074c.274-.278.594-.489.954-.637.359-.148.734-.223 1.125-.223h31.597c.39 0 .766.075 1.125.223.36.148.68.36.953.637.278.273.489.59.637.949.152.36.227.734.227 1.125v.922c0 .39-.075.765-.227 1.125a2.84 2.84 0 0 1-.637.95 2.856 2.856 0 0 1-.953.636c-.36.152-.734.226-1.125.226Zm-31.597-5.117a1.254 1.254 0 0 0-1.164.778 1.257 1.257 0 0 0-.098.48v.922c0 .168.035.328.098.48.062.157.156.293.273.41a1.254 1.254 0 0 0 .89.367h31.598c.164 0 .328-.03.48-.093a1.28 1.28 0 0 0 .41-.274 1.254 1.254 0 0 0 .367-.89l.001-.922a1.254 1.254 0 0 0-1.258-1.258Zm0 0" style="stroke:none;fill-rule:nonzero;fill:#00aaa8;fill-opacity:1"/><g clip-path="url(#f)"><path d="M452.34 198.559h-2.52a.814.814 0 0 1-.597-.246.811.811 0 0 1-.246-.594c0-.23.082-.43.246-.594a.814.814 0 0 1 .597-.246h2.52c.23 0 .43.082.594.246a.811.811 0 0 1 .246.594c0 .23-.082.43-.246.594a.811.811 0 0 1-.594.246Zm0 0" style="stroke:none;fill-rule:nonzero;fill:#00aaa8;fill-opacity:1"/></g><g clip-path="url(#g)"><path d="M468.977 198.559h-14.118a.811.811 0 0 1-.593-.246.811.811 0 0 1-.246-.594c0-.23.082-.43.246-.594a.811.811 0 0 1 .593-.246h14.118c.168 0 .328-.031.484-.094.152-.066.289-.156.406-.273.121-.117.211-.254.274-.407a1.22 1.22 0 0 0 .097-.484v-.836a1.22 1.22 0 0 0-.097-.484 1.184 1.184 0 0 0-.274-.406 1.242 1.242 0 0 0-.89-.368H429.23a1.254 1.254 0 0 0-1.164.774 1.292 1.292 0 0 0-.097.484v.922a1.272 1.272 0 0 0 .37.887c.118.12.255.21.411.273.152.067.313.098.48.098h18.067c.234 0 .43.082.594.246.164.164.246.36.246.594 0 .23-.082.425-.246.59a.805.805 0 0 1-.594.246H429.23c-.398 0-.777-.075-1.144-.23a2.918 2.918 0 0 1-1.598-1.641 2.873 2.873 0 0 1-.199-1.149v-.836a2.919 2.919 0 0 1 .863-2.078 2.919 2.919 0 0 1 2.078-.86h39.747c.39 0 .765.075 1.125.223.363.153.68.364.957.637a2.919 2.919 0 0 1 .86 2.078l-.001.922a2.911 2.911 0 0 1-.89 2.02c-.274.265-.59.472-.942.617-.356.14-.727.215-1.11.215Zm0 0" style="stroke:none;fill-rule:nonzero;fill:#00aaa8;fill-opacity:1"/></g><g clip-path="url(#h)"><path d="M472.172 179.184h-8.235a.814.814 0 0 1-.597-.246.796.796 0 0 1-.246-.59v-12.246c0-.23.082-.43.246-.594a.814.814 0 0 1 .598-.246h8.234c.379 0 .742.074 1.094.218a2.828 2.828 0 0 1 1.543 1.543c.148.348.218.715.218 1.09v8.305c-.011.371-.09.727-.242 1.066-.148.34-.355.637-.625.895a2.85 2.85 0 0 1-.914.598c-.344.14-.703.207-1.074.207Zm-7.395-1.676h7.395a1.182 1.182 0 0 0 1.086-.727c.058-.14.09-.293.09-.449v-8.219a1.175 1.175 0 0 0-1.176-1.172h-7.395Zm0 0" style="stroke:none;fill-rule:nonzero;fill:#00aaa8;fill-opacity:1"/></g><path d="M471.078 176.164h-7.14a.826.826 0 0 1-.598-.242.811.811 0 0 1-.246-.594v-6.125c0-.23.082-.426.246-.59a.814.814 0 0 1 .598-.246h7.14c.235 0 .43.082.594.246.164.164.246.36.246.59v6.125c0 .23-.082.43-.246.594a.817.817 0 0 1-.594.242Zm-6.3-1.676h5.46v-4.445h-5.46Zm0 0" style="stroke:none;fill-rule:nonzero;fill:#00aaa8;fill-opacity:1"/><g clip-path="url(#i)"><path d="M440.238 171.469a.811.811 0 0 1-.593-.246.805.805 0 0 1-.247-.594V156.96c0-.23.082-.43.247-.594a.811.811 0 0 1 .593-.246c.235 0 .43.082.594.246a.811.811 0 0 1 .246.594v13.668c0 .234-.082.43-.246.594a.805.805 0 0 1-.594.246Zm0 0" style="stroke:none;fill-rule:nonzero;fill:#00aaa8;fill-opacity:1"/></g><path d="M442.004 175.074h-3.195a.811.811 0 0 1-.594-.246.796.796 0 0 1-.246-.59v-3.61c0-.23.082-.425.246-.589a.811.811 0 0 1 .594-.246h3.195c.23 0 .43.082.594.246.164.164.246.36.246.59v3.61c0 .23-.082.429-.246.59a.811.811 0 0 1-.594.245Zm-2.352-1.676h1.512v-1.93h-1.512Zm0 0" style="stroke:none;fill-rule:nonzero;fill:#00aaa8;fill-opacity:1"/><g clip-path="url(#j)"><g clip-path="url(#k)"><g clip-path="url(#l)"><path d="M370.105 57.844a5.301 5.301 0 1 1 10 3.516 5.307 5.307 0 0 1-6.761 3.25 5.304 5.304 0 0 1-3.239-6.766Zm-1.128 12.941 3.906 1.371 1.648-2.832a9.52 9.52 0 0 0 2.192-.12l1.941 2.632 3.734-1.793-.832-3.168a9.767 9.767 0 0 0 1.465-1.637l3.235.485 1.375-3.914-2.825-1.649c.043-.738 0-1.472-.12-2.191l2.632-1.946-1.789-3.738-3.164.836a9.407 9.407 0 0 0-1.633-1.46l.488-3.243-3.906-1.375-1.648 2.832a9.721 9.721 0 0 0-2.188.121l-1.945-2.633-3.734 1.797.836 3.164a9.923 9.923 0 0 0-1.465 1.637l-3.239-.484-1.375 3.914 2.829 1.648a9.755 9.755 0 0 0 .117 2.191l-2.63 1.95 1.786 3.738 3.168-.84a9.714 9.714 0 0 0 1.629 1.465l-.488 3.242" style="stroke:none;fill-rule:nonzero;fill:#00aaa8;fill-opacity:1"/></g></g></g><g clip-path="url(#m)"><g clip-path="url(#n)"><g clip-path="url(#o)"><g clip-path="url(#p)"><g clip-path="url(#q)"><path d="M377.367 84.316a3.982 3.982 0 0 1-5.387 1.641 3.986 3.986 0 0 1 3.754-7.031 3.986 3.986 0 0 1 1.633 5.39Zm3.793-1.992 2.176-1.144-.906-2.977-2.442.258a7.158 7.158 0 0 0-1.043-1.27l.73-2.351-2.741-1.465-1.547 1.914a7.226 7.226 0 0 0-1.637-.16l-1.14-2.176-2.977.906.258 2.446a7.532 7.532 0 0 0-1.274 1.047l-2.344-.727-1.464 2.746 1.91 1.543a7.309 7.309 0 0 0-.164 1.64l-2.176 1.145.906 2.98 2.442-.261c.293.46.644.887 1.043 1.273l-.73 2.352 2.741 1.465 1.547-1.914c.543.117 1.09.168 1.637.16l1.14 2.176 2.977-.907-.258-2.445a7.355 7.355 0 0 0 1.27-1.047l2.347.727 1.465-2.746-1.91-1.547a7.286 7.286 0 0 0 .164-1.64" style="stroke:none;fill-rule:nonzero;fill:#00aaa8;fill-opacity:1"/></g></g></g></g></g><g clip-path="url(#r)"><g clip-path="url(#s)"><g clip-path="url(#t)"><g clip-path="url(#u)"><g clip-path="url(#v)"><path d="M395.656 76.383a4.18 4.18 0 0 1-5.82 1.058 4.192 4.192 0 0 1-1.05-5.832 4.18 4.18 0 0 1 5.82-1.058 4.192 4.192 0 0 1 1.05 5.832Zm3.836.078a7.781 7.781 0 0 0 .367-1.695l2.41-.93-.582-3.223-2.582-.023a7.564 7.564 0 0 0-.933-1.457l1.047-2.367-2.684-1.864-1.844 1.813a7.318 7.318 0 0 0-1.691-.367l-.93-2.414-3.215.586-.03 2.582a7.767 7.767 0 0 0-1.454.941l-2.363-1.047-1.863 2.688 1.804 1.847a7.781 7.781 0 0 0-.367 1.696l-2.41.93.582 3.222 2.582.023c.25.516.562 1.004.934 1.457l-1.047 2.368 2.683 1.863 1.848-1.813a7.48 7.48 0 0 0 1.691.368l.926 2.414 3.219-.582.027-2.59c.512-.254 1-.567 1.453-.938l2.364 1.047 1.863-2.691-1.805-1.844" style="stroke:none;fill-rule:nonzero;fill:#00aaa8;fill-opacity:1"/></g></g></g></g></g><g clip-path="url(#w)"><path d="M113.781 128.5a.724.724 0 0 0-.715.734v7.93a.728.728 0 1 0 1.453 0v-7.93a.727.727 0 0 0-.738-.734Zm14.215 3.797a.723.723 0 0 0-.637.367l-3.976 6.867a.728.728 0 0 0 .27.992c.343.204.788.086.988-.261l3.976-6.871a.722.722 0 0 0-.617-1.094Zm-28.539 0a.723.723 0 0 0-.594 1.094l3.973 6.867a.726.726 0 1 0 1.258-.727l-3.973-6.87a.734.734 0 0 0-.664-.368Zm14.336 9.183a11.246 11.246 0 0 0-11.285 11.29v4.566h22.574v-4.566c0-6.27-5.023-11.29-11.289-11.29Zm-24.672 1.188c-.766-.027-1.05.988-.383 1.36l6.883 3.964a.73.73 0 0 0 1.016-.254.724.724 0 0 0-.29-1.004l-6.882-3.964a.71.71 0 0 0-.344-.094Zm49.293 0a.737.737 0 0 0-.398.098l-6.883 3.964a.724.724 0 1 0 .722 1.254l6.887-3.964c.64-.356.406-1.333-.328-1.356Zm-24.41.477c.34 0 .668.02.996.05.332.028.652.075.969.149.316.074.633.144.937.242a9.495 9.495 0 0 1 2.551 1.215 9.28 9.28 0 0 1 1.441 1.18.72.72 0 0 1 .004 1.027.732.732 0 0 1-1.03.004 6.767 6.767 0 0 0-.59-.532 5.604 5.604 0 0 0-.637-.472 7.942 7.942 0 0 0-.684-.414c-.242-.121-.477-.242-.723-.344a7.094 7.094 0 0 0-1.555-.469 9.846 9.846 0 0 0-.828-.125 10.178 10.178 0 0 0-.851-.047.728.728 0 0 1 0-1.453Zm7.91 4.671c.273 0 .527.145.652.387.149.277.29.559.41.848a.717.717 0 0 1-.386.949.719.719 0 0 1-.95-.387 7.169 7.169 0 0 0-.35-.718.727.727 0 0 1 .624-1.079Zm1.04 3.356a.727.727 0 0 1 .737.664c.028.324.051.656.051.988a.729.729 0 0 1-1.457 0c0-.285-.012-.566-.047-.844-.05-.43.282-.8.711-.804Zm-20.446 7.617v9.406c0 6.27 5.023 11.29 11.289 11.29 6.262 0 11.285-5.02 11.285-11.29v-9.406Zm-3.43 5.352a1.936 1.936 0 0 0-1.91 1.968c.004.004.004.008.004.012v2.05c0 8.364 6.18 15.302 14.2 16.477.355.055.624.36.624.72v8.808c0 .097.004.195.02.304a.729.729 0 0 1-.715.848h-4.461a1.78 1.78 0 0 0-1.8 1.8c0 1.013.792 1.806 1.8 1.806h13.914c1.004 0 1.8-.793 1.8-1.805s-.792-1.8-1.8-1.8h-4.465a.729.729 0 0 1-.715-.849c.016-.097.024-.19.024-.304v-8.809a.73.73 0 0 1 .62-.719c8.02-1.175 14.204-8.113 14.204-16.476V166.113a1.93 1.93 0 0 0-1.942-1.96 1.93 1.93 0 0 0-1.937 1.96v2.058c0 7.102-5.66 12.77-12.75 12.77-7.086 0-12.742-5.668-12.742-12.77v-2.062a1.937 1.937 0 0 0-1.973-1.968Zm0 0" style="stroke:none;fill-rule:nonzero;fill:#00aaa8;fill-opacity:1"/></g><g clip-path="url(#x)"><g clip-path="url(#y)"><g clip-path="url(#z)"><path d="M113.227 75.352a6.55 6.55 0 0 1 1.355.035c.453.054.89.152 1.324.297.43.14.844.324 1.239.55.398.223.765.485 1.109.782.344.296.656.625.937.98.278.36.52.742.727 1.149.203.406.367.828.488 1.265.121.438.196.883.23 1.336.032.453.024.906-.034 1.356a6.633 6.633 0 0 1-.297 1.324c-.14.433-.325.847-.551 1.242a6.842 6.842 0 0 1-1.766 2.043 6.592 6.592 0 0 1-1.144.727 7.004 7.004 0 0 1-1.266.488c-.437.12-.883.199-1.336.23a6.878 6.878 0 0 1-1.36-.031 7.06 7.06 0 0 1-2.562-.848 7.116 7.116 0 0 1-1.11-.785 6.717 6.717 0 0 1-.933-.98 7.004 7.004 0 0 1-1.215-2.414 6.735 6.735 0 0 1-.23-1.336 6.832 6.832 0 0 1 .328-2.68 7.2 7.2 0 0 1 .55-1.242c.228-.395.485-.766.782-1.11.297-.343.625-.656.985-.933a6.901 6.901 0 0 1 2.414-1.215c.437-.121.882-.2 1.336-.23Zm0 0" style="stroke:none;fill-rule:nonzero;fill:#00aaa8;fill-opacity:1"/></g></g></g><g clip-path="url(#A)"><g clip-path="url(#B)"><g clip-path="url(#C)"><path d="m118.86 57.586.507 6.902c-13.324.98-23.363 12.614-22.383 25.938l-6.902.508c-1.262-17.13 11.648-32.086 28.777-33.348Zm0 0" style="stroke:none;fill-rule:nonzero;fill:#00aaa8;fill-opacity:1"/></g></g></g><g clip-path="url(#D)"><g clip-path="url(#E)"><g clip-path="url(#F)"><path d="m117.844 43.781.508 6.903C97.418 52.223 81.64 70.504 83.18 91.44l-6.907.508c-1.816-24.742 16.832-46.347 41.57-48.168Zm0 0" style="stroke:none;fill-rule:nonzero;fill:#00aaa8;fill-opacity:1"/></g></g></g></svg>