<?xml version="1.0" encoding="UTF-8"?><svg xmlns="http://www.w3.org/2000/svg" xmlns:xlink="http://www.w3.org/1999/xlink" width="36pt" zoomAndPan="magnify" viewBox="0 0 36 36.000001" height="36.000001pt" preserveAspectRatio="xMidYMid meet" version="1.2"><defs><clipPath xml:id="clip1" id="clip1"><path d="M 3 2.636719 L 28 2.636719 L 28 32.554688 L 3 32.554688 Z M 3 2.636719 "/></clipPath><clipPath xml:id="clip2" id="clip2"><path d="M 21 2.636719 L 33.503906 2.636719 L 33.503906 22 L 21 22 Z M 21 2.636719 "/></clipPath></defs><g xml:id="surface1" id="surface1"><g clip-rule="nonzero" clip-path="url(#clip1)"><path style=" stroke:none;fill-rule:nonzero;fill:rgb(0%,66.668701%,65.879822%);fill-opacity:1;" d="M 12.375 5.1875 C 12.355469 5.160156 12.328125 5.136719 12.304688 5.113281 L 10.710938 3.777344 L 19.664062 3.777344 L 18.074219 5.113281 C 18.046875 5.136719 18.023438 5.160156 18.003906 5.1875 C 17.800781 5.445312 17.6875 5.773438 17.6875 6.105469 L 17.6875 12.4375 C 17.6875 12.703125 17.757812 12.964844 17.894531 13.191406 L 25.6875 26.324219 C 26.332031 27.414062 26.339844 28.714844 25.710938 29.8125 C 25.078125 30.90625 23.945312 31.5625 22.675781 31.5625 L 7.703125 31.5625 C 6.433594 31.5625 5.296875 30.90625 4.667969 29.8125 C 4.039062 28.714844 4.046875 27.414062 4.691406 26.324219 L 12.484375 13.191406 C 12.621094 12.964844 12.691406 12.703125 12.691406 12.4375 L 12.691406 6.105469 C 12.691406 5.773438 12.578125 5.449219 12.375 5.1875 Z M 11.625 12.6875 L 3.832031 25.820312 C 3.003906 27.21875 2.992188 28.894531 3.800781 30.304688 C 4.609375 31.714844 6.070312 32.554688 7.703125 32.554688 L 22.675781 32.554688 C 24.308594 32.554688 25.769531 31.714844 26.578125 30.304688 C 27.386719 28.894531 27.375 27.21875 26.546875 25.820312 L 18.753906 12.6875 C 18.707031 12.613281 18.683594 12.527344 18.683594 12.4375 L 18.683594 6.105469 C 18.683594 6.007812 18.714844 5.914062 18.765625 5.832031 L 20.398438 4.460938 C 20.421875 4.441406 20.445312 4.417969 20.46875 4.390625 C 20.703125 4.089844 20.746094 3.6875 20.582031 3.34375 C 20.410156 2.996094 20.066406 2.785156 19.679688 2.785156 L 10.695312 2.785156 C 10.3125 2.785156 9.964844 2.996094 9.800781 3.34375 C 9.628906 3.6875 9.675781 4.089844 9.910156 4.390625 C 9.929688 4.417969 9.953125 4.441406 9.980469 4.460938 L 11.613281 5.832031 C 11.664062 5.914062 11.695312 6.007812 11.695312 6.105469 L 11.695312 12.4375 C 11.695312 12.527344 11.671875 12.613281 11.625 12.6875 "/></g><path style=" stroke:none;fill-rule:nonzero;fill:rgb(0%,66.668701%,65.879822%);fill-opacity:1;" d="M 13.613281 15.683594 L 16.765625 15.683594 C 16.941406 15.683594 17.105469 15.777344 17.195312 15.929688 L 23.964844 27.332031 C 24.347656 27.976562 24.136719 28.542969 23.976562 28.824219 C 23.8125 29.105469 23.429688 29.578125 22.671875 29.578125 L 7.703125 29.578125 C 6.949219 29.578125 6.5625 29.105469 6.402344 28.828125 C 6.273438 28.601562 6.015625 28.003906 6.410156 27.332031 L 13.179688 15.929688 C 13.269531 15.777344 13.4375 15.683594 13.613281 15.683594 Z M 12.324219 15.425781 L 5.554688 26.828125 C 4.890625 27.945312 5.320312 28.941406 5.535156 29.320312 C 5.753906 29.695312 6.398438 30.570312 7.703125 30.570312 L 22.671875 30.570312 C 23.980469 30.570312 24.628906 29.695312 24.84375 29.320312 C 24.84375 29.316406 24.84375 29.316406 24.84375 29.316406 C 25.058594 28.941406 25.488281 27.945312 24.824219 26.828125 L 18.054688 15.425781 C 17.789062 14.972656 17.292969 14.691406 16.765625 14.691406 L 13.613281 14.691406 C 13.085938 14.691406 12.589844 14.972656 12.324219 15.425781 "/><g clip-rule="nonzero" clip-path="url(#clip2)"><path style=" stroke:none;fill-rule:nonzero;fill:rgb(0%,66.668701%,65.879822%);fill-opacity:1;" d="M 30.863281 12.074219 C 29.789062 13.25 29.1875 14.835938 29.164062 16.5625 C 29.164062 16.570312 29.164062 16.578125 29.164062 16.585938 C 29.164062 16.640625 29.152344 16.671875 29.160156 16.675781 L 25.171875 16.675781 L 25.171875 16.488281 C 25.171875 14.902344 24.539062 13.300781 23.386719 11.980469 C 22.605469 11.082031 22.175781 9.929688 22.175781 8.738281 C 22.175781 7.328125 22.78125 5.980469 23.839844 5.039062 C 24.765625 4.214844 25.929688 3.777344 27.164062 3.777344 C 27.355469 3.777344 27.550781 3.785156 27.746094 3.808594 C 29.761719 4.03125 31.792969 5.964844 32.101562 7.945312 L 32.101562 7.949219 C 32.332031 9.457031 31.882812 10.960938 30.863281 12.074219 Z M 28.667969 19.15625 C 28.667969 19.980469 27.996094 20.644531 27.167969 20.644531 C 26.519531 20.644531 25.96875 20.230469 25.761719 19.652344 L 27.167969 19.652344 C 27.441406 19.652344 27.667969 19.429688 27.667969 19.15625 C 27.667969 18.882812 27.441406 18.660156 27.167969 18.660156 L 25.671875 18.660156 L 25.671875 17.667969 L 28.667969 17.667969 Z M 33.085938 7.796875 C 32.714844 5.375 30.316406 3.097656 27.855469 2.824219 C 26.148438 2.636719 24.441406 3.171875 23.171875 4.300781 C 21.90625 5.429688 21.175781 7.046875 21.175781 8.738281 C 21.175781 10.167969 21.695312 11.550781 22.632812 12.628906 C 23.640625 13.789062 24.171875 15.121094 24.171875 16.488281 L 24.171875 16.675781 C 24.171875 17.042969 24.375 17.359375 24.671875 17.53125 L 24.671875 19.15625 C 24.671875 20.527344 25.792969 21.640625 27.167969 21.640625 C 28.546875 21.640625 29.664062 20.527344 29.664062 19.15625 L 29.664062 17.53125 C 29.917969 17.378906 30.097656 17.113281 30.148438 16.785156 C 30.15625 16.746094 30.164062 16.703125 30.164062 16.664062 C 30.164062 15.148438 30.675781 13.757812 31.601562 12.746094 C 32.824219 11.40625 33.367188 9.605469 33.085938 7.792969 L 33.085938 7.796875 "/></g><path style=" stroke:none;fill-rule:nonzero;fill:rgb(0%,66.668701%,65.879822%);fill-opacity:1;" d="M 8.578125 28.585938 L 11.195312 28.585938 C 11.46875 28.585938 11.695312 28.363281 11.695312 28.089844 C 11.695312 27.816406 11.46875 27.59375 11.195312 27.59375 L 8.578125 27.59375 L 9.902344 25.363281 C 10.042969 25.128906 9.960938 24.824219 9.726562 24.683594 C 9.488281 24.546875 9.179688 24.625 9.042969 24.859375 L 7.71875 27.089844 C 7.535156 27.398438 7.53125 27.773438 7.710938 28.085938 C 7.890625 28.398438 8.214844 28.585938 8.578125 28.585938 "/><path style=" stroke:none;fill-rule:nonzero;fill:rgb(0%,66.668701%,65.879822%);fill-opacity:1;" d="M 13.191406 28.585938 L 13.691406 28.585938 C 13.964844 28.585938 14.191406 28.363281 14.191406 28.089844 C 14.191406 27.816406 13.964844 27.59375 13.691406 27.59375 L 13.191406 27.59375 C 12.914062 27.59375 12.691406 27.816406 12.691406 28.089844 C 12.691406 28.363281 12.914062 28.585938 13.191406 28.585938 "/><path style=" stroke:none;fill-rule:nonzero;fill:rgb(0%,66.668701%,65.879822%);fill-opacity:1;" d="M 10.394531 23.554688 C 10.476562 23.601562 10.5625 23.625 10.648438 23.625 C 10.820312 23.625 10.988281 23.535156 11.082031 23.378906 L 11.371094 22.882812 C 11.511719 22.648438 11.433594 22.34375 11.199219 22.203125 C 10.960938 22.066406 10.652344 22.144531 10.515625 22.378906 L 10.21875 22.875 C 10.078125 23.113281 10.15625 23.414062 10.394531 23.554688 "/><path style=" stroke:none;fill-rule:nonzero;fill:rgb(0%,66.668701%,65.879822%);fill-opacity:1;" d="M 14.191406 10.226562 C 14.464844 10.226562 14.691406 10.003906 14.691406 9.730469 L 14.691406 6.257812 C 14.691406 5.984375 14.464844 5.761719 14.191406 5.761719 C 13.914062 5.761719 13.691406 5.984375 13.691406 6.257812 L 13.691406 9.730469 C 13.691406 10.003906 13.914062 10.226562 14.191406 10.226562 "/><path style=" stroke:none;fill-rule:nonzero;fill:rgb(0%,66.668701%,65.879822%);fill-opacity:1;" d="M 14.191406 12.707031 C 14.464844 12.707031 14.691406 12.484375 14.691406 12.210938 L 14.691406 11.714844 C 14.691406 11.441406 14.464844 11.21875 14.191406 11.21875 C 13.914062 11.21875 13.691406 11.441406 13.691406 11.714844 L 13.691406 12.210938 C 13.691406 12.484375 13.914062 12.707031 14.191406 12.707031 "/><path style=" stroke:none;fill-rule:nonzero;fill:rgb(0%,66.668701%,65.879822%);fill-opacity:1;" d="M 27.167969 4.769531 C 26.976562 4.769531 26.785156 4.78125 26.597656 4.808594 C 26.324219 4.847656 26.132812 5.097656 26.175781 5.371094 C 26.210938 5.617188 26.421875 5.796875 26.667969 5.796875 C 26.691406 5.796875 26.714844 5.796875 26.738281 5.792969 C 26.882812 5.769531 27.027344 5.761719 27.167969 5.761719 C 27.445312 5.761719 27.667969 5.539062 27.667969 5.265625 C 27.667969 4.992188 27.445312 4.769531 27.167969 4.769531 "/><path style=" stroke:none;fill-rule:nonzero;fill:rgb(0%,66.668701%,65.879822%);fill-opacity:1;" d="M 24.898438 10.683594 C 24.433594 10.144531 24.171875 9.453125 24.171875 8.738281 C 24.171875 7.933594 24.492188 7.179688 25.074219 6.613281 C 25.269531 6.421875 25.273438 6.105469 25.082031 5.910156 C 24.886719 5.714844 24.574219 5.710938 24.375 5.902344 C 23.601562 6.65625 23.175781 7.664062 23.175781 8.738281 C 23.175781 9.691406 23.519531 10.613281 24.144531 11.332031 C 24.457031 11.691406 24.738281 12.074219 24.984375 12.472656 C 25.082031 12.625 25.242188 12.707031 25.410156 12.707031 C 25.5 12.707031 25.59375 12.683594 25.671875 12.632812 C 25.90625 12.492188 25.980469 12.183594 25.835938 11.953125 C 25.5625 11.507812 25.246094 11.082031 24.898438 10.683594 "/></g></svg>