<?xml version="1.0" encoding="UTF-8"?><svg xmlns="http://www.w3.org/2000/svg" xmlns:xlink="http://www.w3.org/1999/xlink" width="36pt" zoomAndPan="magnify" viewBox="0 0 36 36.000001" height="36.000001pt" preserveAspectRatio="xMidYMid meet" version="1.2"><defs><clipPath xml:id="clip1" id="clip1"><path d="M 1.871094 1.386719 L 33.980469 1.386719 L 33.980469 33.496094 L 1.871094 33.496094 Z M 1.871094 1.386719 "/></clipPath></defs><g xml:id="surface1" id="surface1"><g clip-rule="nonzero" clip-path="url(#clip1)"><path style=" stroke:none;fill-rule:nonzero;fill:rgb(0%,66.668701%,65.879822%);fill-opacity:1;" d="M 17.925781 1.386719 C 17.402344 1.386719 16.875 1.414062 16.351562 1.464844 C 15.832031 1.515625 15.3125 1.59375 14.796875 1.695312 C 14.28125 1.796875 13.769531 1.925781 13.265625 2.078125 C 12.761719 2.230469 12.269531 2.40625 11.785156 2.609375 C 11.296875 2.808594 10.824219 3.035156 10.359375 3.28125 C 9.894531 3.53125 9.445312 3.800781 9.007812 4.09375 C 8.570312 4.382812 8.148438 4.695312 7.742188 5.03125 C 7.335938 5.363281 6.945312 5.71875 6.574219 6.089844 C 6.203125 6.460938 5.851562 6.847656 5.515625 7.257812 C 5.183594 7.664062 4.871094 8.085938 4.578125 8.519531 C 4.285156 8.957031 4.015625 9.410156 3.769531 9.871094 C 3.519531 10.335938 3.296875 10.8125 3.09375 11.296875 C 2.894531 11.78125 2.71875 12.277344 2.5625 12.78125 C 2.410156 13.285156 2.285156 13.792969 2.179688 14.308594 C 2.078125 14.824219 2 15.34375 1.949219 15.867188 C 1.898438 16.390625 1.871094 16.914062 1.871094 17.441406 C 1.871094 17.964844 1.898438 18.492188 1.949219 19.015625 C 2 19.539062 2.078125 20.058594 2.179688 20.574219 C 2.285156 21.089844 2.410156 21.597656 2.5625 22.101562 C 2.71875 22.605469 2.894531 23.097656 3.09375 23.585938 C 3.296875 24.070312 3.519531 24.542969 3.769531 25.007812 C 4.015625 25.472656 4.285156 25.921875 4.578125 26.359375 C 4.871094 26.796875 5.183594 27.21875 5.515625 27.625 C 5.851562 28.03125 6.203125 28.421875 6.574219 28.792969 C 6.945312 29.164062 7.335938 29.515625 7.742188 29.851562 C 8.148438 30.183594 8.570312 30.496094 9.007812 30.789062 C 9.445312 31.082031 9.894531 31.351562 10.359375 31.597656 C 10.824219 31.847656 11.296875 32.070312 11.785156 32.273438 C 12.269531 32.472656 12.761719 32.652344 13.265625 32.804688 C 13.769531 32.957031 14.28125 33.082031 14.796875 33.1875 C 15.3125 33.289062 15.832031 33.367188 16.351562 33.417969 C 16.875 33.46875 17.402344 33.496094 17.925781 33.496094 C 18.453125 33.496094 18.976562 33.46875 19.5 33.417969 C 20.023438 33.367188 20.542969 33.289062 21.058594 33.1875 C 21.574219 33.082031 22.085938 32.957031 22.585938 32.804688 C 23.089844 32.652344 23.585938 32.472656 24.070312 32.273438 C 24.554688 32.070312 25.03125 31.847656 25.496094 31.597656 C 25.957031 31.351562 26.410156 31.082031 26.847656 30.789062 C 27.285156 30.496094 27.707031 30.183594 28.113281 29.851562 C 28.519531 29.515625 28.90625 29.164062 29.277344 28.792969 C 29.652344 28.421875 30.003906 28.03125 30.335938 27.625 C 30.671875 27.21875 30.984375 26.796875 31.277344 26.359375 C 31.566406 25.921875 31.835938 25.472656 32.085938 25.007812 C 32.332031 24.542969 32.558594 24.070312 32.757812 23.585938 C 32.960938 23.097656 33.136719 22.605469 33.289062 22.101562 C 33.441406 21.597656 33.570312 21.089844 33.671875 20.574219 C 33.773438 20.058594 33.851562 19.539062 33.902344 19.015625 C 33.957031 18.492188 33.980469 17.964844 33.980469 17.441406 C 33.980469 16.914062 33.953125 16.390625 33.902344 15.867188 C 33.851562 15.34375 33.773438 14.824219 33.667969 14.308594 C 33.566406 13.792969 33.4375 13.285156 33.285156 12.78125 C 33.132812 12.28125 32.957031 11.785156 32.753906 11.300781 C 32.554688 10.8125 32.328125 10.339844 32.082031 9.875 C 31.832031 9.414062 31.5625 8.960938 31.269531 8.527344 C 30.976562 8.089844 30.664062 7.667969 30.332031 7.261719 C 29.996094 6.855469 29.644531 6.464844 29.273438 6.09375 C 28.902344 5.722656 28.511719 5.371094 28.105469 5.035156 C 27.699219 4.703125 27.277344 4.390625 26.84375 4.097656 C 26.40625 3.804688 25.953125 3.535156 25.492188 3.289062 C 25.027344 3.039062 24.554688 2.816406 24.066406 2.613281 C 23.582031 2.410156 23.089844 2.234375 22.585938 2.082031 C 22.082031 1.929688 21.574219 1.800781 21.058594 1.699219 C 20.542969 1.59375 20.023438 1.515625 19.5 1.464844 C 18.976562 1.414062 18.453125 1.386719 17.925781 1.386719 Z M 17.925781 32.097656 C 16.964844 32.097656 16.011719 32.003906 15.066406 31.816406 C 14.125 31.628906 13.207031 31.351562 12.316406 30.984375 C 11.429688 30.613281 10.582031 30.164062 9.785156 29.628906 C 8.984375 29.09375 8.242188 28.484375 7.5625 27.804688 C 6.882812 27.125 6.273438 26.382812 5.738281 25.585938 C 5.203125 24.785156 4.753906 23.9375 4.382812 23.050781 C 4.015625 22.160156 3.738281 21.246094 3.550781 20.300781 C 3.363281 19.355469 3.269531 18.402344 3.269531 17.441406 C 3.269531 16.476562 3.363281 15.523438 3.550781 14.582031 C 3.738281 13.636719 4.015625 12.71875 4.382812 11.832031 C 4.753906 10.941406 5.203125 10.097656 5.738281 9.296875 C 6.273438 8.496094 6.882812 7.757812 7.5625 7.074219 C 8.242188 6.394531 8.984375 5.789062 9.785156 5.253906 C 10.582031 4.71875 11.429688 4.265625 12.316406 3.898438 C 13.207031 3.53125 14.125 3.25 15.066406 3.0625 C 16.011719 2.875 16.964844 2.78125 17.925781 2.78125 C 18.890625 2.78125 19.84375 2.875 20.785156 3.0625 C 21.730469 3.25 22.648438 3.53125 23.535156 3.898438 C 24.425781 4.265625 25.269531 4.71875 26.070312 5.253906 C 26.871094 5.789062 27.609375 6.394531 28.292969 7.074219 C 28.972656 7.757812 29.578125 8.496094 30.113281 9.296875 C 30.648438 10.097656 31.101562 10.941406 31.46875 11.832031 C 31.835938 12.71875 32.117188 13.636719 32.304688 14.582031 C 32.492188 15.523438 32.585938 16.476562 32.585938 17.441406 C 32.585938 18.402344 32.488281 19.355469 32.300781 20.300781 C 32.113281 21.242188 31.832031 22.160156 31.464844 23.046875 C 31.097656 23.9375 30.644531 24.78125 30.109375 25.582031 C 29.574219 26.378906 28.96875 27.121094 28.289062 27.800781 C 27.605469 28.480469 26.867188 29.089844 26.066406 29.625 C 25.265625 30.15625 24.421875 30.609375 23.535156 30.980469 C 22.644531 31.347656 21.730469 31.625 20.785156 31.8125 C 19.84375 32.003906 18.890625 32.097656 17.925781 32.097656 Z M 17.925781 32.097656 "/></g><path style=" stroke:none;fill-rule:nonzero;fill:rgb(0%,66.668701%,65.879822%);fill-opacity:1;" d="M 25.269531 6.96875 L 10.585938 6.96875 C 10.167969 6.972656 9.769531 7.050781 9.386719 7.210938 C 9.003906 7.367188 8.667969 7.59375 8.375 7.886719 C 8.082031 8.179688 7.855469 8.519531 7.695312 8.902344 C 7.535156 9.285156 7.457031 9.683594 7.457031 10.097656 L 7.457031 24.785156 C 7.457031 25.199219 7.535156 25.597656 7.695312 25.980469 C 7.855469 26.363281 8.082031 26.699219 8.375 26.992188 C 8.667969 27.285156 9.003906 27.511719 9.386719 27.671875 C 9.769531 27.832031 10.167969 27.910156 10.585938 27.910156 L 25.269531 27.910156 C 25.683594 27.910156 26.082031 27.832031 26.464844 27.671875 C 26.847656 27.511719 27.1875 27.285156 27.480469 26.992188 C 27.773438 26.699219 28 26.363281 28.15625 25.980469 C 28.316406 25.597656 28.398438 25.199219 28.398438 24.785156 L 28.398438 10.097656 C 28.398438 9.683594 28.316406 9.285156 28.15625 8.902344 C 28 8.519531 27.773438 8.179688 27.480469 7.886719 C 27.1875 7.59375 26.847656 7.367188 26.464844 7.210938 C 26.082031 7.050781 25.683594 6.972656 25.269531 6.96875 Z M 17.230469 24.652344 L 17.230469 26.515625 L 14.066406 26.515625 L 14.066406 24.652344 Z M 18.625 24.652344 L 21.789062 24.652344 L 21.789062 26.515625 L 18.625 26.515625 Z M 8.851562 23.257812 L 8.851562 11.625 L 27 11.625 L 27 23.257812 Z M 18.625 10.226562 L 18.625 8.367188 L 21.789062 8.367188 L 21.789062 10.226562 Z M 17.230469 10.226562 L 14.066406 10.226562 L 14.066406 8.367188 L 17.230469 8.367188 Z M 27 10.097656 L 27 10.226562 L 23.183594 10.226562 L 23.183594 8.367188 L 25.269531 8.367188 C 25.5 8.367188 25.71875 8.410156 25.933594 8.5 C 26.144531 8.585938 26.332031 8.710938 26.492188 8.875 C 26.65625 9.035156 26.78125 9.222656 26.867188 9.433594 C 26.957031 9.648438 27 9.867188 27 10.097656 Z M 10.585938 8.367188 L 12.667969 8.367188 L 12.667969 10.226562 L 8.851562 10.226562 L 8.851562 10.097656 C 8.851562 9.867188 8.898438 9.648438 8.984375 9.433594 C 9.074219 9.222656 9.199219 9.035156 9.359375 8.875 C 9.523438 8.710938 9.710938 8.585938 9.921875 8.5 C 10.132812 8.410156 10.355469 8.367188 10.585938 8.367188 Z M 8.851562 24.785156 L 8.851562 24.652344 L 12.667969 24.652344 L 12.667969 26.515625 L 10.585938 26.515625 C 10.355469 26.515625 10.132812 26.46875 9.921875 26.382812 C 9.710938 26.292969 9.523438 26.167969 9.359375 26.007812 C 9.199219 25.84375 9.074219 25.65625 8.984375 25.445312 C 8.898438 25.234375 8.851562 25.011719 8.851562 24.785156 Z M 25.269531 26.515625 L 23.183594 26.515625 L 23.183594 24.652344 L 27 24.652344 L 27 24.785156 C 27 25.011719 26.957031 25.234375 26.867188 25.445312 C 26.78125 25.65625 26.65625 25.84375 26.492188 26.007812 C 26.332031 26.167969 26.144531 26.292969 25.933594 26.382812 C 25.71875 26.46875 25.5 26.515625 25.269531 26.515625 Z M 25.269531 26.515625 "/><path style=" stroke:none;fill-rule:nonzero;fill:rgb(0%,66.668701%,65.879822%);fill-opacity:1;" d="M 22.210938 16.851562 L 15.042969 12.292969 C 14.8125 12.144531 14.574219 12.136719 14.332031 12.269531 C 14.09375 12.402344 13.972656 12.605469 13.972656 12.878906 L 13.972656 22 C 13.972656 22.277344 14.09375 22.480469 14.332031 22.613281 C 14.574219 22.746094 14.8125 22.738281 15.042969 22.589844 L 22.210938 18.03125 C 22.3125 17.964844 22.390625 17.882812 22.449219 17.777344 C 22.503906 17.671875 22.535156 17.558594 22.535156 17.441406 C 22.535156 17.320312 22.503906 17.210938 22.449219 17.105469 C 22.390625 17 22.3125 16.914062 22.210938 16.851562 Z M 15.371094 20.730469 L 15.371094 14.152344 L 20.535156 17.441406 Z M 15.371094 20.730469 "/></g></svg>